<?xml version="1.0" standalone="no"?>
<!DOCTYPE svg PUBLIC "-//W3C//DTD SVG 20010904//EN"
 "http://www.w3.org/TR/2001/REC-SVG-20010904/DTD/svg10.dtd">
<svg version="1.0" xmlns="http://www.w3.org/2000/svg"
 width="6477.000000pt" height="3644.000000pt" viewBox="0 0 6477.000000 3644.000000"
 preserveAspectRatio="xMidYMid meet">

<g transform="translate(0.000000,3644.000000) scale(0.100000,-0.100000)"
fill="#000000" stroke="none">
<path d="M50575 36412 c-36 -49 -353 -484 -482 -662 -69 -96 -146 -202 -171
-235 -70 -93 -93 -152 -95 -240 -2 -57 2 -78 13 -85 9 -5 19 -5 27 1 7 6 16 9
20 6 4 -3 8 34 8 81 0 80 3 91 33 145 19 31 80 119 136 195 56 75 156 211 221
301 66 90 144 196 172 235 29 39 81 111 115 159 35 49 69 97 77 108 12 18 11
19 -20 19 -25 -1 -39 -8 -54 -28z"/>
<path d="M52440 36410 c19 -16 39 -30 43 -30 4 0 13 -5 20 -10 29 -25 157
-117 345 -251 112 -79 225 -159 250 -177 26 -18 63 -44 82 -57 38 -26 234
-166 262 -187 10 -7 33 -23 50 -36 18 -13 102 -72 187 -133 84 -60 166 -116
181 -124 16 -8 30 -18 32 -23 1 -5 39 -33 83 -64 107 -74 656 -466 675 -481 9
-7 38 -28 65 -47 190 -128 257 -189 275 -254 15 -56 8 -255 -9 -266 -8 -4 -12
-13 -9 -20 5 -16 41 42 58 95 18 54 8 162 -20 220 -38 79 -51 89 -475 389
-272 193 -275 195 -440 311 -82 58 -158 112 -168 120 -9 8 -20 15 -23 15 -5 0
-62 39 -80 56 -6 5 -56 41 -110 78 -55 37 -135 93 -180 124 -134 94 -328 231
-349 246 -11 8 -96 69 -190 135 -93 66 -175 124 -180 129 -6 4 -35 25 -65 45
-30 20 -95 66 -145 102 -49 35 -100 69 -112 74 -13 6 -23 14 -23 19 0 8 -44
32 -58 32 -4 0 9 -14 28 -30z"/>
<path d="M53116 36432 c5 -5 41 -31 79 -58 39 -27 75 -52 80 -57 6 -4 73 -52
150 -105 77 -54 163 -114 190 -134 278 -196 385 -273 475 -335 58 -41 168
-118 245 -173 240 -170 279 -189 387 -190 87 0 162 28 225 85 27 24 93 103
146 177 54 73 118 160 143 193 46 61 324 438 401 543 l42 57 -41 3 c-22 2 -41
2 -43 0 -1 -2 -151 -202 -334 -445 -379 -506 -395 -522 -523 -531 -84 -6 -124
12 -283 128 -60 44 -146 105 -190 136 -44 30 -107 75 -140 99 -33 24 -94 68
-135 97 -41 29 -84 60 -94 70 -11 10 -25 18 -32 18 -7 0 -14 3 -16 8 -1 4 -28
25 -58 46 -136 97 -468 332 -499 353 -28 19 -47 23 -109 23 -43 0 -72 -4 -66
-8z"/>
<path d="M56133 36418 c-19 -21 -82 -106 -353 -478 -42 -58 -154 -207 -248
-333 -281 -373 -287 -384 -280 -515 4 -87 28 -148 65 -165 12 -5 23 -16 23
-24 0 -7 5 -13 10 -13 6 0 10 -6 11 -12 0 -7 27 -33 61 -58 141 -105 174 -129
291 -213 67 -49 131 -95 142 -103 22 -16 348 -247 380 -269 11 -8 56 -40 100
-71 44 -32 110 -78 146 -103 37 -25 120 -84 184 -130 338 -240 413 -281 517
-282 59 -1 148 24 181 51 61 49 119 113 191 210 103 139 192 259 226 304 33
43 15 20 385 516 458 614 470 631 492 675 51 102 54 205 7 297 -30 59 -70 97
-188 180 -44 31 -92 66 -106 76 -14 11 -108 76 -210 145 -102 70 -191 131
-197 137 -7 6 -34 25 -60 42 -27 18 -50 35 -53 38 -3 3 -38 27 -78 54 -40 27
-75 53 -78 57 -3 5 -15 9 -26 9 -17 0 -15 -4 13 -23 86 -59 466 -327 534 -378
28 -20 70 -49 94 -65 24 -16 53 -36 65 -44 181 -126 227 -169 246 -224 14 -44
19 -158 7 -199 -5 -17 -4 -26 1 -23 6 3 6 -13 1 -40 -9 -50 -53 -131 -95 -178
-21 -24 -28 -27 -36 -15 -7 10 -8 7 -4 -11 4 -20 -5 -36 -41 -75 -25 -27 -38
-38 -29 -22 14 24 15 27 1 27 -8 0 -15 6 -15 13 0 6 -7 3 -15 -8 -30 -40 -50
-66 -67 -83 -15 -16 -79 -100 -272 -358 -49 -65 -101 -135 -116 -154 -88 -115
-200 -264 -256 -341 -35 -49 -70 -96 -78 -106 -9 -10 -69 -88 -134 -173 -105
-137 -125 -158 -175 -184 -102 -52 -204 -34 -337 63 -30 22 -104 73 -165 115
-60 41 -148 103 -195 137 -47 34 -119 85 -160 114 -226 156 -266 184 -275 192
-5 5 -45 34 -89 64 -114 78 -173 120 -241 168 -127 90 -296 206 -313 216 -38
21 -128 91 -155 120 -68 72 -84 152 -47 244 25 63 30 71 390 556 89 120 202
275 220 301 8 12 64 87 124 165 60 79 119 159 133 177 l24 32 -29 0 c-17 0
-37 -9 -49 -22z m2247 -1343 c0 -5 -5 -3 -10 5 -5 8 -10 20 -10 25 0 6 5 3 10
-5 5 -8 10 -19 10 -25z"/>
<path d="M58437 36434 c-10 -11 3 -24 23 -24 10 0 27 -13 37 -30 9 -16 23 -30
29 -30 7 0 14 -4 16 -9 2 -7 295 -222 423 -311 17 -12 66 -47 110 -77 44 -31
150 -105 235 -164 85 -60 220 -154 300 -211 79 -57 152 -107 162 -113 10 -5
66 -44 125 -86 203 -144 287 -177 401 -158 86 13 155 53 218 124 52 59 824
1080 824 1090 0 3 -20 5 -44 5 -43 0 -46 -2 -103 -73 -32 -41 -76 -100 -98
-131 -22 -32 -44 -63 -50 -69 -5 -7 -44 -57 -85 -112 -42 -55 -116 -154 -166
-220 -50 -66 -144 -191 -208 -278 -65 -86 -136 -172 -157 -191 -83 -71 -206
-83 -298 -30 -42 25 -312 212 -579 401 -57 40 -107 73 -112 73 -4 0 -10 3 -12
8 -1 4 -50 39 -108 78 -165 112 -424 292 -437 303 -7 6 -14 11 -17 11 -2 0
-81 52 -175 115 -144 97 -177 115 -209 115 -21 0 -42 -3 -45 -6z"/>
<path d="M61768 36371 c-29 -37 -63 -81 -75 -97 -12 -16 -75 -99 -139 -184
-219 -288 -389 -515 -443 -590 -30 -41 -57 -77 -60 -80 -12 -9 -199 -265 -223
-305 -59 -94 -67 -207 -23 -303 14 -31 34 -65 43 -75 19 -22 141 -121 186
-152 16 -11 41 -29 56 -40 15 -11 86 -60 156 -110 140 -97 265 -185 303 -213
29 -21 212 -148 356 -248 61 -41 157 -109 215 -150 58 -41 118 -83 134 -92 15
-9 56 -37 90 -62 110 -82 237 -160 289 -180 115 -44 254 -17 346 66 27 24 193
232 367 462 175 229 341 446 368 482 172 222 539 717 555 748 10 20 22 52 26
70 10 49 8 133 -4 145 -8 8 -11 6 -11 -7 0 -20 -81 -199 -92 -204 -5 -2 -8 -8
-8 -13 0 -6 -9 -19 -19 -31 -11 -11 -17 -26 -14 -34 3 -9 -2 -14 -13 -14 -15
0 -16 -2 -5 -9 12 -8 12 -12 2 -25 -7 -8 -22 -18 -33 -22 -11 -3 -17 -12 -15
-19 3 -7 -1 -12 -11 -11 -11 1 -16 -6 -16 -17 1 -11 -4 -16 -15 -15 -9 2 -15
-3 -13 -10 1 -8 -3 -12 -10 -10 -7 3 -33 -23 -58 -56 -25 -34 -51 -68 -57 -76
-18 -21 -306 -400 -465 -610 -73 -96 -146 -191 -163 -211 -16 -20 -52 -65 -78
-100 -126 -169 -212 -278 -248 -316 -111 -116 -258 -115 -412 2 -25 19 -49 35
-53 35 -4 0 -30 17 -58 38 -98 74 -456 325 -709 497 -180 122 -271 188 -275
197 -2 5 -8 8 -13 8 -5 0 -95 60 -201 133 -106 73 -219 149 -250 170 -76 50
-125 111 -139 174 -26 113 -4 154 319 576 46 59 96 129 112 154 16 25 42 60
57 77 16 17 84 105 152 196 69 91 152 201 185 245 34 44 68 89 76 101 8 12 43
58 78 103 l63 81 -30 0 c-25 0 -38 -11 -83 -69z"/>
<path d="M63816 36412 c21 -15 50 -35 64 -44 14 -10 61 -42 105 -73 44 -31
118 -82 165 -113 47 -31 87 -59 90 -62 13 -14 157 -115 280 -196 74 -49 140
-94 145 -100 11 -13 91 -64 100 -64 3 0 5 21 5 48 0 51 6 44 -95 106 -16 10
-32 22 -35 26 -3 4 -81 59 -175 122 -220 149 -318 216 -330 225 -5 4 -30 21
-55 38 -25 16 -71 49 -104 72 -55 41 -62 43 -129 43 l-70 0 39 -28z"/>
<path d="M59144 35281 c-61 -16 -137 -66 -189 -126 -28 -33 -101 -126 -161
-208 -60 -81 -127 -171 -149 -201 -55 -74 -342 -453 -375 -496 -164 -210 -512
-688 -535 -734 -26 -52 -30 -71 -30 -140 0 -142 52 -215 254 -356 52 -36 120
-85 153 -110 32 -25 74 -54 92 -65 18 -11 73 -50 122 -86 135 -99 295 -212
321 -227 13 -7 72 -48 131 -90 59 -43 136 -98 172 -122 36 -24 67 -46 70 -49
6 -7 42 -32 131 -93 35 -23 66 -45 69 -49 21 -23 210 -148 270 -177 70 -35 80
-37 170 -37 159 0 197 27 380 268 58 76 167 220 243 320 114 149 269 354 547
723 316 419 349 473 357 577 7 92 -22 163 -101 242 -33 34 -72 67 -86 74 -14
7 3 -12 37 -43 80 -73 98 -118 89 -218 -4 -40 -7 -87 -7 -104 1 -18 -6 -37
-14 -44 -8 -7 -15 -19 -15 -27 0 -8 -5 -11 -11 -8 -17 11 -49 -26 -49 -57 0
-34 -35 -108 -53 -109 -6 -1 -20 0 -30 1 -23 2 -48 -29 -41 -52 3 -11 -2 -17
-17 -20 -24 -3 -80 -72 -323 -393 -79 -104 -174 -230 -213 -280 -38 -49 -110
-144 -159 -210 -49 -66 -137 -183 -194 -259 -137 -183 -183 -232 -241 -262
-70 -35 -122 -39 -191 -15 -55 19 -100 47 -293 185 -99 70 -108 76 -170 118
-27 19 -94 65 -147 104 -53 38 -142 101 -198 139 -56 39 -131 92 -168 118 -37
27 -76 55 -87 62 -11 8 -65 47 -120 86 -55 40 -154 108 -220 152 -66 44 -122
82 -125 86 -3 4 -32 24 -65 46 -33 21 -74 50 -91 64 -17 14 -42 34 -55 43 -14
10 -37 42 -52 71 -51 101 -30 185 88 347 38 52 73 100 79 106 6 6 43 53 81
104 39 50 90 118 115 150 25 32 65 88 90 125 25 36 66 92 91 123 43 54 115
149 508 674 90 120 181 234 203 254 80 72 206 109 283 84 48 -16 123 -61 240
-145 50 -35 94 -64 99 -65 20 0 -233 175 -294 203 -68 33 -154 44 -216 28z"/>
<path d="M58446 35241 c-28 -29 -30 -61 -4 -61 9 0 9 3 0 12 -18 18 -14 28 10
25 18 -2 23 3 23 26 1 15 0 27 0 27 -1 0 -14 -13 -29 -29z"/>
<path d="M49865 35150 c3 -5 8 -10 11 -10 2 0 4 5 4 10 0 6 -5 10 -11 10 -5 0
-7 -4 -4 -10z"/>
<path d="M49930 35115 c-10 -12 -10 -19 -2 -27 7 -7 12 -10 13 -7 3 15 5 49 4
49 -2 0 -8 -7 -15 -15z"/>
<path d="M64734 35109 c-88 -25 -143 -82 -379 -394 -137 -181 -199 -263 -360
-470 -113 -145 -336 -438 -495 -650 -57 -77 -114 -151 -127 -164 -12 -14 -37
-54 -55 -89 -81 -161 -34 -312 141 -446 66 -50 403 -290 538 -382 52 -36 100
-69 106 -75 10 -9 180 -127 427 -297 36 -25 99 -68 140 -97 41 -28 81 -55 88
-59 9 -5 12 8 12 56 0 59 -2 65 -27 80 -25 15 -314 216 -338 236 -5 4 -50 35
-100 68 -49 33 -133 90 -185 125 -52 36 -153 105 -225 154 -71 49 -168 115
-215 147 -47 31 -89 61 -95 65 -5 5 -40 28 -77 51 -154 100 -202 193 -163 313
19 59 43 96 150 238 38 51 79 106 90 121 17 24 378 504 403 535 44 57 179 232
222 291 373 498 429 565 515 606 25 12 45 28 45 35 0 7 -1 13 -2 12 -2 0 -17
-5 -34 -10z"/>
<path d="M49963 35097 c3 -9 9 -32 13 -52 5 -27 10 -35 21 -30 11 4 14 0 10
-14 -3 -12 5 -26 26 -42 16 -13 44 -36 61 -50 17 -14 38 -28 46 -31 8 -3 53
-34 100 -69 47 -35 106 -77 130 -94 25 -16 51 -35 60 -42 42 -33 110 -82 155
-113 28 -18 52 -36 55 -39 3 -3 25 -20 50 -36 25 -17 83 -57 130 -91 47 -33
126 -89 175 -124 50 -35 92 -67 95 -70 3 -4 30 -23 60 -43 30 -20 102 -70 160
-112 58 -41 141 -100 185 -131 97 -67 214 -151 369 -264 221 -160 291 -210
319 -225 15 -9 71 -48 125 -88 84 -63 542 -388 725 -515 34 -23 69 -48 77 -55
9 -6 36 -25 60 -42 25 -16 70 -48 100 -71 137 -103 256 -139 363 -110 120 33
129 42 543 601 101 138 200 270 219 295 65 87 301 406 362 490 34 47 72 99 86
115 22 27 104 145 120 171 4 7 -5 11 -25 10 -29 -1 -33 -5 -40 -41 -5 -22 -19
-48 -31 -57 -24 -19 -42 -24 -32 -8 3 6 -1 7 -10 4 -9 -4 -14 -8 -11 -11 2 -2
-12 -21 -31 -41 -28 -31 -92 -112 -258 -331 -10 -14 -78 -105 -149 -201 -338
-456 -611 -818 -640 -849 -40 -43 -120 -81 -170 -81 -89 0 -103 9 -634 390
-180 129 -331 238 -337 243 -23 18 -344 248 -401 287 -77 53 -150 104 -154
110 -3 3 -27 21 -55 40 -27 18 -120 84 -205 145 -85 61 -166 118 -180 127 -33
22 -382 275 -395 286 -5 4 -37 27 -70 49 -33 23 -130 92 -215 154 -85 61 -186
133 -225 160 -38 27 -113 80 -165 119 -52 39 -113 83 -135 99 -257 180 -440
298 -432 278z m4877 -1027 c-19 -12 -30 -12 -30 -1 0 10 31 20 40 14 2 -2 -2
-8 -10 -13z"/>
<path d="M59671 35037 c2 -2 20 -14 39 -26 l35 -23 -28 26 c-15 14 -33 26 -39
26 -6 0 -9 -1 -7 -3z"/>
<path d="M59750 34982 c0 -5 12 -14 26 -20 14 -7 23 -8 19 -2 -9 15 -45 32
-45 22z"/>
<path d="M59845 34915 c11 -8 52 -37 90 -64 39 -28 84 -59 100 -71 102 -72
185 -130 211 -145 l29 -17 -27 23 c-14 13 -48 39 -75 57 -26 18 -112 78 -190
132 -78 55 -145 100 -149 100 -5 0 1 -7 11 -15z"/>
<path d="M49465 34751 c-81 -20 -149 -71 -218 -164 -53 -71 -163 -221 -241
-327 -22 -30 -54 -74 -70 -96 -17 -23 -38 -52 -46 -64 -8 -12 -33 -47 -55 -76
-65 -86 -193 -262 -389 -534 -101 -140 -212 -292 -246 -337 -89 -120 -115
-182 -114 -268 1 -70 10 -95 59 -170 11 -16 27 -37 35 -45 22 -22 130 -111
165 -135 15 -11 36 -27 45 -35 9 -8 24 -19 33 -25 8 -5 77 -55 153 -110 75
-55 169 -122 208 -149 39 -27 96 -68 126 -90 30 -22 69 -50 85 -62 17 -11 39
-28 50 -37 11 -9 89 -65 174 -124 260 -182 403 -284 732 -523 110 -80 208
-149 217 -155 9 -5 48 -33 86 -60 39 -28 82 -58 96 -67 27 -19 220 -157 365
-262 122 -88 434 -310 520 -369 67 -46 239 -169 260 -185 6 -4 33 -23 60 -42
28 -19 52 -37 55 -40 17 -18 149 -110 158 -110 6 0 12 -3 14 -8 3 -6 172 -127
273 -194 42 -28 141 -52 189 -46 27 3 21 8 -65 68 -92 63 -174 121 -334 238
-44 32 -102 74 -130 93 -27 19 -56 40 -65 46 -8 7 -36 28 -61 45 -26 18 -91
65 -145 104 -55 39 -118 84 -140 100 -63 44 -276 198 -394 284 -224 163 -328
238 -395 285 -97 68 -222 156 -254 180 -27 20 -67 47 -192 134 -35 25 -65 48
-67 53 -2 4 -8 8 -13 8 -5 0 -17 6 -26 14 -27 22 -299 216 -373 266 -36 24
-67 46 -70 50 -3 3 -21 17 -40 30 -19 13 -37 27 -40 30 -3 3 -12 10 -21 15
-31 19 -285 200 -314 223 -5 4 -44 31 -85 59 -41 29 -129 91 -195 139 -125 91
-263 187 -451 314 -129 88 -160 112 -197 161 -25 33 -26 41 -23 115 2 61 9 88
27 119 26 44 144 214 196 283 18 24 33 50 33 57 0 7 4 15 10 17 18 6 120 143
120 162 0 10 23 42 51 70 29 28 126 155 216 281 90 127 192 268 227 315 34 47
75 105 91 130 36 57 233 309 260 333 56 49 150 75 212 58 34 -9 141 -76 243
-152 19 -14 85 -61 145 -103 61 -43 119 -84 130 -92 53 -39 264 -189 385 -273
47 -33 90 -63 95 -68 6 -5 39 -29 75 -53 36 -24 67 -46 70 -50 3 -3 52 -39
110 -80 58 -40 121 -85 140 -99 19 -14 48 -35 65 -47 16 -11 86 -60 155 -109
69 -49 150 -106 180 -127 46 -31 176 -124 255 -182 11 -8 61 -43 110 -78 50
-35 169 -120 265 -188 96 -68 229 -162 295 -209 66 -46 158 -112 205 -146 47
-34 113 -81 148 -106 35 -24 85 -60 111 -79 26 -19 54 -39 63 -45 9 -5 73 -50
143 -100 171 -122 412 -293 515 -366 47 -33 157 -112 245 -175 88 -62 189
-134 225 -160 346 -244 400 -287 426 -336 22 -42 29 -141 13 -180 -18 -43 -96
-161 -155 -233 -107 -132 -738 -982 -785 -1058 -14 -23 -40 -57 -58 -76 -43
-46 -56 -70 -39 -75 62 -20 67 -18 108 36 22 29 124 166 226 303 103 138 206
275 229 305 23 30 114 152 202 270 328 442 327 441 339 542 8 67 -13 144 -56
209 -31 48 -140 132 -426 332 -75 52 -384 271 -424 300 -45 32 -232 165 -360
255 -69 49 -181 128 -250 177 -69 48 -183 130 -255 180 -71 51 -184 131 -250
178 -66 47 -133 95 -150 107 -16 12 -68 49 -115 82 -47 32 -94 66 -105 74 -11
8 -65 46 -120 84 -55 39 -116 82 -135 96 -19 14 -73 52 -120 85 -47 33 -92 65
-100 72 -9 7 -36 26 -60 43 -25 17 -146 102 -268 190 -212 150 -294 208 -457
322 -38 27 -161 114 -272 193 -709 505 -694 494 -798 564 -114 75 -200 97
-290 76z"/>
<path d="M60310 34591 c14 -11 79 -59 145 -105 66 -47 125 -89 131 -94 5 -5
21 -15 35 -22 13 -7 26 -16 29 -20 6 -8 98 -73 120 -84 18 -9 -16 21 -55 49
-15 11 -39 29 -54 40 -14 11 -46 34 -71 50 -25 17 -47 33 -50 36 -3 3 -25 18
-48 33 -24 15 -72 48 -105 73 -68 49 -120 79 -77 44z"/>
<path d="M54970 34325 c0 -8 2 -15 4 -15 2 0 6 7 10 15 3 8 1 15 -4 15 -6 0
-10 -7 -10 -15z"/>
<path d="M60880 34187 c78 -53 90 -59 90 -48 0 6 -5 11 -10 11 -6 0 -29 14
-52 30 -22 17 -46 30 -52 30 -6 0 5 -11 24 -23z"/>
<path d="M54855 34160 c-3 -5 -1 -10 4 -10 6 0 11 5 11 10 0 6 -2 10 -4 10 -3
0 -8 -4 -11 -10z"/>
<path d="M55472 34145 c-90 -25 -152 -76 -239 -196 -27 -37 -88 -120 -137
-185 -50 -66 -209 -279 -355 -474 -511 -685 -517 -694 -618 -838 -101 -143
-77 -315 60 -434 63 -55 68 -59 158 -119 30 -20 64 -45 76 -55 12 -11 52 -39
88 -64 37 -25 90 -63 118 -85 50 -39 91 -69 272 -193 44 -31 82 -58 85 -61 3
-3 37 -27 75 -53 39 -26 116 -80 172 -120 56 -40 146 -104 200 -142 54 -38
139 -99 188 -136 198 -147 273 -184 380 -184 118 0 212 52 298 165 210 277
1093 1458 1127 1508 59 88 80 147 80 227 0 114 -58 202 -194 298 -32 22 -84
58 -115 80 -31 21 -108 75 -171 121 -223 159 -246 174 -260 165 -11 -7 -8 -14
15 -32 34 -28 189 -138 317 -227 133 -93 270 -195 290 -218 70 -78 62 -234
-18 -358 -19 -30 -34 -58 -34 -62 0 -5 -8 -13 -19 -20 -16 -10 -71 -78 -268
-337 -34 -45 -88 -114 -120 -155 -32 -41 -95 -124 -140 -185 -45 -61 -101
-136 -125 -166 -25 -30 -66 -86 -93 -125 -27 -38 -60 -84 -74 -101 -33 -40
-50 -62 -81 -105 -13 -19 -28 -38 -33 -44 -8 -10 -50 -66 -139 -185 -47 -63
-81 -95 -121 -116 -43 -23 -123 -33 -171 -21 -37 9 -256 149 -411 263 -33 24
-96 69 -140 100 -159 111 -250 175 -385 272 -52 38 -144 102 -205 143 -560
382 -577 394 -619 451 -36 48 -40 59 -44 128 -6 102 -4 106 190 370 43 58 81
110 86 115 4 6 31 42 60 80 28 39 65 88 81 110 121 161 258 346 310 421 20 28
68 93 108 145 40 52 89 117 109 144 21 28 69 93 108 145 39 52 73 97 76 100 3
3 27 32 52 66 54 70 101 109 159 129 56 20 162 19 202 -1 50 -26 400 -268 734
-507 38 -27 113 -78 168 -115 55 -36 110 -74 122 -85 13 -12 29 -17 39 -13 16
6 -13 33 -106 96 -20 13 -56 40 -85 62 -5 5 -73 51 -150 104 -77 53 -162 113
-190 134 -151 112 -463 325 -513 351 -71 36 -155 45 -230 24z"/>
<path d="M61613 33531 c-101 -35 -150 -82 -308 -296 -32 -44 -61 -82 -65 -85
-4 -3 -17 -21 -31 -40 -13 -20 -50 -69 -82 -110 -31 -41 -93 -122 -137 -180
-44 -58 -86 -112 -93 -120 -30 -38 -133 -174 -142 -189 -5 -9 -32 -45 -60 -81
-27 -35 -57 -74 -65 -86 -12 -18 -109 -146 -143 -189 -4 -5 -40 -53 -80 -105
-197 -259 -215 -290 -224 -399 -8 -97 12 -150 89 -235 34 -37 84 -83 112 -101
28 -19 101 -70 161 -115 61 -44 162 -116 225 -160 63 -44 138 -96 165 -115 28
-20 61 -44 75 -53 14 -9 27 -19 30 -22 3 -3 30 -22 60 -42 30 -21 78 -53 105
-73 91 -65 309 -218 375 -263 14 -9 76 -53 139 -97 269 -190 318 -215 425
-215 131 0 222 52 324 186 30 38 61 78 70 89 9 11 71 92 137 178 66 87 161
211 210 276 50 65 133 174 185 242 52 68 124 163 160 210 177 233 310 408 354
468 101 138 134 251 101 351 -24 71 -91 151 -173 205 -21 13 -61 41 -89 62
-29 21 -134 94 -234 163 -100 69 -186 130 -193 135 -6 6 -38 28 -71 50 -33 22
-62 42 -65 45 -3 3 -39 28 -80 56 -83 56 -291 202 -330 232 -14 10 -67 48
-118 83 -52 35 -130 90 -175 121 -45 32 -129 90 -187 130 -154 105 -245 128
-357 89z m241 -41 c24 -11 122 -75 219 -143 97 -67 264 -183 372 -257 241
-166 333 -231 421 -294 38 -27 96 -68 129 -91 33 -23 92 -63 130 -90 39 -27
106 -74 150 -104 44 -30 82 -57 85 -61 3 -3 38 -27 79 -55 98 -65 171 -132
187 -172 24 -56 18 -140 -15 -209 -16 -34 -34 -65 -40 -68 -16 -10 -13 -26 5
-26 9 0 -12 -28 -53 -69 -37 -38 -90 -97 -118 -132 -27 -35 -54 -69 -60 -75
-5 -6 -33 -42 -62 -80 -29 -38 -82 -107 -118 -154 -36 -47 -113 -148 -171
-225 -59 -77 -119 -154 -133 -171 -14 -16 -36 -43 -48 -60 -67 -92 -194 -258
-243 -319 -31 -38 -84 -107 -118 -152 -130 -172 -202 -223 -316 -223 -36 0
-78 5 -93 12 -35 15 -200 124 -353 232 -63 45 -125 88 -136 96 -12 8 -63 44
-114 80 -50 36 -102 72 -114 80 -13 8 -58 40 -101 70 -131 93 -258 182 -350
245 -48 33 -92 65 -99 71 -6 5 -60 44 -121 85 -60 40 -116 79 -123 86 -7 7
-17 13 -22 13 -5 0 -15 6 -22 13 -7 7 -40 30 -73 52 -101 65 -143 104 -170
158 -52 105 -22 191 140 402 25 33 70 91 98 128 29 38 59 77 67 87 8 10 60 78
115 150 55 72 132 173 170 223 63 82 190 250 331 438 357 476 373 493 499 526
63 16 135 10 189 -17z"/>
<path d="M57933 32416 c-104 -34 -160 -83 -278 -246 -42 -58 -83 -113 -91
-123 -51 -62 -314 -416 -314 -423 0 -5 -11 -19 -24 -31 -23 -22 -390 -503
-501 -658 -33 -46 -81 -111 -107 -144 -122 -156 -140 -288 -56 -421 33 -53 98
-112 115 -106 7 3 10 -1 6 -10 -3 -7 -1 -14 3 -14 5 0 23 -12 39 -28 17 -15
66 -51 110 -81 44 -30 92 -64 106 -75 30 -24 58 -45 115 -83 22 -16 94 -66
158 -113 117 -85 134 -97 274 -194 41 -28 102 -71 137 -96 206 -147 326 -232
403 -288 281 -203 355 -235 483 -212 127 23 163 55 384 344 88 115 209 273
268 350 59 78 118 155 130 173 19 27 85 115 338 448 114 149 277 373 296 405
28 47 44 110 45 179 1 106 -61 201 -193 294 -177 124 -288 203 -393 278 -126
90 -346 245 -541 382 -66 46 -199 139 -295 207 -291 205 -358 250 -405 271
-58 26 -158 33 -212 15z m210 -77 c47 -24 155 -95 298 -196 484 -342 812 -572
954 -669 55 -38 102 -72 103 -76 2 -5 10 -8 17 -8 7 0 15 -4 17 -8 2 -5 28
-26 60 -48 267 -186 292 -209 313 -291 19 -74 -8 -170 -69 -253 -20 -26 -25
-41 -20 -66 5 -26 2 -34 -15 -44 -12 -6 -25 -9 -30 -6 -9 6 -54 -40 -97 -99
-16 -21 -36 -47 -44 -56 -8 -9 -40 -49 -70 -89 -30 -40 -60 -77 -66 -84 -5 -6
-71 -92 -144 -191 -74 -99 -138 -184 -143 -190 -4 -5 -37 -48 -73 -95 -36 -47
-86 -112 -111 -145 -26 -33 -87 -114 -137 -180 -49 -66 -113 -152 -142 -191
-29 -39 -75 -93 -102 -121 -99 -102 -232 -109 -362 -19 -25 17 -47 33 -50 36
-3 3 -41 30 -85 59 -44 30 -91 63 -105 74 -23 17 -181 129 -607 431 -93 65
-240 168 -328 229 -88 61 -204 141 -259 179 -54 38 -111 75 -127 84 -16 8 -51
37 -78 64 -27 28 -55 50 -62 50 -9 0 -10 3 -3 10 6 6 8 31 4 63 -14 106 7 144
295 528 72 96 144 193 160 216 17 23 91 121 165 219 173 227 186 244 207 274
18 26 110 149 171 230 19 25 78 104 132 175 97 128 163 191 225 213 54 19 161
14 208 -9z"/>
<path d="M47701 32360 c-109 -39 -121 -53 -521 -605 -47 -64 -112 -154 -145
-199 -96 -131 -485 -664 -550 -754 -33 -45 -111 -152 -172 -237 -62 -86 -125
-174 -139 -196 -84 -134 -65 -297 48 -405 37 -37 128 -107 198 -154 12 -8 41
-29 64 -46 22 -17 131 -96 241 -174 110 -79 253 -182 317 -229 65 -47 146
-106 180 -130 35 -25 90 -64 123 -88 313 -224 383 -275 405 -293 39 -31 140
-78 194 -90 84 -18 194 13 270 76 15 14 48 50 71 80 l43 55 -21 44 c-12 24
-24 44 -27 44 -3 0 -17 -16 -31 -37 -91 -127 -158 -172 -259 -172 -84 0 -77
-4 -495 298 -110 80 -225 163 -255 186 -63 46 -117 85 -250 181 -52 38 -130
94 -172 124 -42 31 -141 101 -219 156 -78 55 -147 105 -153 111 -6 5 -39 29
-73 52 -58 39 -94 68 -135 108 -36 35 -53 87 -52 159 1 85 14 114 121 257 43
57 123 166 178 242 55 75 155 212 223 304 67 92 129 176 137 187 8 11 62 85
121 165 224 303 271 366 302 411 17 26 69 96 114 158 46 61 102 137 125 168
133 185 198 231 307 220 30 -3 69 -13 87 -22 48 -25 189 -123 582 -407 188
-136 397 -287 464 -335 68 -49 154 -110 192 -138 38 -27 138 -99 222 -160 193
-138 229 -173 252 -246 21 -68 22 -105 2 -143 -8 -15 -15 -37 -15 -47 0 -11
-3 -19 -7 -19 -5 0 -19 -17 -33 -38 -14 -20 -47 -64 -75 -98 -27 -33 -59 -73
-70 -89 -11 -15 -40 -55 -65 -88 -56 -74 -69 -92 -257 -346 -84 -113 -157
-210 -161 -216 -4 -5 -51 -68 -102 -140 -52 -71 -100 -137 -107 -145 -35 -43
-326 -439 -331 -450 -3 -6 105 -6 111 1 2 2 50 67 107 144 129 175 203 276
285 387 36 48 77 105 92 126 16 22 60 82 99 133 39 52 97 130 129 174 32 44
75 103 95 130 20 28 61 84 90 125 30 41 99 135 154 209 110 149 136 204 138
295 2 126 -44 197 -202 315 -91 68 -351 254 -734 525 -61 44 -162 116 -224
160 -62 45 -139 99 -170 120 -31 22 -111 78 -177 126 -182 132 -236 166 -288
184 -63 21 -130 20 -196 -4z"/>
<path d="M64153 31790 c-47 -10 -93 -32 -141 -68 -32 -24 -198 -232 -394 -494
-26 -35 -63 -83 -82 -108 -19 -25 -81 -106 -138 -180 -119 -156 -244 -318
-261 -340 -107 -132 -405 -535 -424 -573 -34 -68 -42 -171 -19 -250 9 -31 21
-57 26 -57 6 0 10 -6 10 -14 0 -29 111 -120 360 -294 97 -69 316 -224 340
-241 53 -39 278 -198 341 -241 37 -25 100 -69 140 -97 41 -29 124 -87 186
-130 438 -306 431 -302 561 -306 48 -1 93 2 100 6 7 5 12 30 12 61 l0 53 -52
-14 c-62 -16 -124 -10 -183 18 -31 15 -426 289 -470 327 -5 4 -44 31 -85 60
-41 28 -111 78 -156 109 -44 32 -152 109 -240 170 -183 130 -337 239 -444 315
-41 29 -82 58 -92 63 -9 6 -50 32 -90 59 -193 130 -221 165 -222 275 -1 84 18
124 136 273 48 62 141 183 205 268 65 85 120 157 123 160 10 10 86 106 115
145 16 22 31 42 35 45 3 3 25 32 49 65 25 33 47 62 50 65 10 9 216 283 249
332 17 25 44 59 59 75 16 16 83 98 151 183 67 85 142 170 165 187 94 70 241
81 342 24 30 -17 55 -30 55 -28 0 12 -116 78 -160 91 -58 17 -92 18 -157 6z"/>
<path d="M64510 31666 c0 -2 14 -14 30 -26 17 -12 30 -19 30 -16 0 2 -13 14
-30 26 -16 12 -30 19 -30 16z"/>
<path d="M64617 31589 c7 -7 15 -10 18 -7 3 3 -2 9 -12 12 -14 6 -15 5 -6 -5z"/>
<path d="M54875 30873 c-98 -39 -121 -65 -390 -428 -70 -93 -162 -217 -205
-275 -368 -487 -424 -566 -409 -576 12 -7 47 27 94 92 17 22 52 70 78 105 27
35 56 75 65 88 9 13 35 47 57 75 129 167 204 273 200 283 -2 7 1 12 7 10 10
-2 98 103 151 180 76 109 261 345 292 370 40 34 120 63 170 63 39 0 135 -30
135 -42 0 -4 5 -8 11 -8 11 0 71 -40 207 -140 46 -33 87 -60 93 -60 5 0 9 -4
9 -8 0 -4 13 -16 30 -25 16 -10 35 -23 42 -30 7 -7 56 -41 108 -77 52 -35 97
-67 100 -70 3 -4 39 -30 80 -58 41 -28 94 -65 118 -82 23 -16 59 -42 81 -57
21 -16 98 -71 171 -123 73 -52 162 -116 199 -142 79 -57 102 -74 155 -113 23
-17 82 -59 133 -93 164 -113 205 -179 186 -297 -15 -85 -41 -139 -96 -199 -15
-16 -26 -35 -23 -42 3 -7 0 -15 -7 -17 -21 -8 -2 -16 43 -19 l44 -3 48 70 c99
146 100 288 2 404 -25 31 -266 215 -311 240 -12 6 -27 17 -35 23 -7 7 -31 25
-53 40 -22 15 -62 43 -90 63 -27 19 -66 46 -85 60 -19 13 -62 43 -96 67 -34
24 -106 74 -160 113 -54 38 -103 73 -109 77 -17 13 -176 126 -248 176 -79 55
-377 267 -392 279 -38 31 -136 89 -177 105 -60 22 -168 23 -223 1z"/>
<path d="M60430 30676 c-110 -24 -177 -80 -308 -256 -35 -47 -111 -148 -170
-225 -58 -77 -140 -185 -181 -240 -41 -55 -79 -104 -83 -110 -5 -5 -58 -75
-119 -155 -60 -80 -156 -205 -212 -278 -56 -74 -118 -155 -137 -182 -19 -26
-70 -94 -114 -151 -80 -106 -121 -182 -128 -235 -3 -25 0 -29 25 -32 17 -2 27
1 27 10 1 42 62 144 180 303 142 189 150 199 191 249 91 111 204 273 201 289
-2 10 2 17 11 17 18 0 47 32 105 114 26 36 139 185 252 332 113 146 222 289
243 318 65 88 137 154 186 171 61 20 160 19 218 -3 43 -16 114 -61 293 -187
31 -22 105 -74 164 -115 59 -41 129 -91 156 -110 27 -19 98 -69 157 -111 59
-42 200 -141 313 -221 113 -79 254 -178 313 -219 119 -82 272 -193 329 -240
91 -74 86 -219 -11 -349 -10 -14 -42 -59 -71 -100 -30 -41 -58 -79 -64 -85
-13 -12 -54 -63 -81 -101 -11 -15 -33 -44 -50 -65 -16 -20 -47 -59 -67 -85
-21 -27 -69 -89 -107 -139 -39 -49 -67 -93 -63 -97 4 -4 26 -10 48 -14 l42 -6
71 93 c39 52 101 132 137 179 36 47 99 130 140 185 41 55 88 117 105 138 85
104 118 236 84 336 -25 78 -81 139 -204 227 -61 43 -164 117 -229 163 -64 46
-166 118 -227 159 -60 41 -130 90 -155 108 -68 50 -112 81 -274 195 -82 57
-223 157 -315 221 -91 65 -218 153 -282 196 -154 105 -235 131 -339 108z"/>
<path d="M50120 30661 c-46 -15 -115 -53 -144 -80 -15 -14 -100 -123 -188
-241 -88 -118 -168 -226 -179 -240 -10 -14 -38 -51 -61 -83 -24 -32 -52 -70
-63 -85 -11 -15 -42 -56 -68 -92 -170 -231 -230 -311 -289 -393 -37 -51 -71
-96 -75 -102 -5 -5 -41 -55 -81 -109 -61 -84 -71 -101 -57 -108 8 -5 22 -8 29
-6 15 3 596 774 596 790 0 5 18 30 40 56 45 53 94 119 175 239 31 46 62 86 68
90 7 5 41 46 76 93 87 117 148 179 195 201 52 24 146 25 194 2 40 -18 222
-139 342 -228 41 -30 86 -63 100 -72 33 -23 205 -149 250 -183 94 -71 159
-108 209 -119 30 -6 56 -9 59 -6 7 6 25 -8 -173 134 -781 559 -755 542 -862
547 -37 2 -79 0 -93 -5z"/>
<path d="M45905 29350 c3 -5 14 -10 23 -10 15 0 15 2 2 10 -20 13 -33 13 -25
0z"/>
<path d="M45950 29322 c0 -17 26 -43 40 -40 9 2 14 -3 12 -12 -4 -17 24 -40
50 -40 24 0 58 -30 58 -52 0 -10 7 -18 15 -18 8 0 15 -6 16 -12 0 -19 55 -59
83 -62 25 -3 56 -27 56 -45 0 -6 9 -11 19 -11 11 0 23 -4 26 -10 3 -6 -1 -7
-9 -4 -9 3 -16 2 -16 -4 0 -12 29 -24 41 -16 12 7 39 -20 39 -41 0 -9 5 -13
10 -10 6 3 10 -1 10 -10 0 -11 5 -15 14 -12 9 4 13 1 10 -7 -6 -15 56 -46 92
-46 21 0 23 -3 16 -17 -13 -23 25 -53 67 -53 21 0 34 -6 38 -17 12 -31 37 -53
60 -53 16 0 23 -6 23 -20 0 -14 7 -20 22 -20 25 0 58 -26 54 -43 -2 -7 -1 -9
1 -4 9 15 42 6 57 -14 8 -12 19 -18 25 -14 6 3 11 1 11 -5 0 -17 103 -115 108
-102 2 7 8 12 14 12 6 0 6 -6 -2 -15 -7 -8 -9 -16 -4 -17 24 -4 31 -6 59 -17
23 -10 26 -14 15 -21 -12 -8 -11 -10 5 -10 15 0 17 -2 6 -9 -10 -6 -2 -11 26
-16 37 -6 89 -46 76 -58 -6 -7 41 -38 53 -36 22 4 34 -2 34 -16 0 -9 8 -19 18
-22 9 -4 21 -12 25 -20 4 -7 14 -13 21 -13 22 0 66 -25 66 -38 0 -7 11 -17 25
-22 14 -5 28 -17 31 -25 4 -8 16 -15 28 -15 26 0 60 -19 36 -20 -8 -1 0 -7 18
-15 18 -8 35 -21 38 -30 3 -8 11 -12 16 -9 6 4 8 -2 3 -17 -4 -15 -3 -19 3
-11 10 14 45 5 36 -9 -3 -5 7 -9 22 -9 21 0 25 -4 21 -20 -4 -14 0 -20 12 -20
9 0 27 -9 38 -19 12 -11 24 -17 27 -13 4 3 4 -1 1 -9 -4 -11 3 -20 24 -29 17
-7 31 -16 31 -21 0 -5 11 -9 25 -9 15 0 25 -6 25 -14 0 -8 9 -18 20 -21 11 -3
20 -10 20 -14 0 -4 6 -8 14 -8 19 0 96 -56 96 -69 0 -7 11 -15 25 -18 14 -4
23 -11 20 -16 -3 -6 4 -10 15 -10 16 0 20 -4 16 -16 -4 -11 -1 -14 12 -11 9 2
32 -7 50 -21 24 -17 41 -22 60 -18 l27 6 -25 -15 -25 -14 33 -1 c19 0 31 -5
30 -12 -2 -6 8 -15 22 -19 14 -4 21 -8 15 -9 -13 -2 94 -29 119 -30 30 0 -57
64 -144 108 -47 23 -97 59 -136 97 -34 33 -109 94 -168 135 -59 41 -112 80
-119 85 -20 17 -285 202 -315 220 -9 6 -19 13 -22 16 -4 6 -352 259 -538 392
-40 29 -96 69 -125 89 -29 21 -76 55 -105 75 -29 21 -58 43 -65 48 -7 6 -34
26 -62 45 -27 19 -54 38 -60 43 -5 4 -57 41 -115 82 -58 41 -110 79 -117 84
-7 6 -17 11 -23 11 -5 0 -10 5 -10 10 0 6 -5 10 -10 10 -11 0 -23 9 -58 40
-24 22 -100 70 -110 70 -5 0 -19 11 -32 25 -13 14 -27 25 -32 25 -10 0 -31 16
-56 43 -17 18 -42 23 -42 9z m95 -72 c3 -5 1 -10 -4 -10 -6 0 -11 5 -11 10 0
6 2 10 4 10 3 0 8 -4 11 -10z m410 -300 c3 -5 1 -10 -4 -10 -6 0 -11 5 -11 10
0 6 2 10 4 10 3 0 8 -4 11 -10z"/>
<path d="M57374 29150 c-54 -11 -146 -58 -139 -70 10 -17 44 -11 93 15 37 20
61 25 119 25 63 0 80 -4 140 -36 37 -19 77 -44 89 -55 11 -10 31 -19 45 -19
l24 1 -30 25 c-42 35 -135 89 -176 102 -52 17 -120 21 -165 12z"/>
<path d="M48780 28971 c0 -11 40 -22 53 -14 5 3 3 9 -4 14 -18 11 -49 11 -49
0z"/>
<path d="M62905 28919 c-71 -25 -103 -46 -155 -98 -49 -49 -187 -223 -215
-269 -5 -9 -13 -19 -16 -22 -26 -22 -168 -214 -163 -221 16 -26 47 0 136 119
321 424 357 457 503 457 106 0 113 -4 470 -254 28 -19 84 -57 125 -85 41 -28
77 -53 80 -56 4 -6 48 -36 305 -215 169 -117 204 -142 278 -198 50 -38 91 -60
115 -64 33 -5 35 -4 22 10 -8 8 -91 69 -185 134 -170 119 -245 172 -320 225
-66 47 -247 172 -264 183 -9 6 -18 13 -21 16 -3 3 -41 30 -85 59 -44 30 -82
57 -85 60 -20 24 -238 169 -290 194 -71 34 -178 45 -235 25z"/>
<path d="M50751 28711 c-31 -6 -36 -12 -63 -81 -54 -139 -72 -167 -125 -194
-31 -15 -34 -15 -77 9 -25 14 -49 25 -54 25 -15 0 -21 -38 -8 -54 14 -18 72
-31 81 -17 3 6 15 11 26 11 16 0 24 -14 21 -41 -2 -12 67 -38 74 -28 3 6 3 13
0 16 -3 3 2 12 11 18 14 10 15 16 5 28 -10 12 -8 16 10 22 53 18 77 22 71 12
-3 -6 6 -8 26 -5 18 3 34 1 37 -4 3 -4 15 -8 27 -8 13 0 36 -16 55 -36 27 -29
36 -33 47 -24 8 7 15 23 15 36 0 29 20 42 32 20 5 -9 15 -16 22 -16 8 0 16 -7
20 -15 10 -28 26 -15 26 21 0 65 -21 123 -61 167 -22 23 -39 45 -39 49 0 4 -9
9 -19 13 -10 3 -21 15 -24 25 -3 12 -14 20 -25 20 -11 0 -23 7 -26 16 -4 9
-13 14 -21 10 -8 -3 -15 -1 -15 4 0 6 -3 9 -7 9 -5 -1 -23 -4 -42 -8z"/>
<path d="M49308 28683 c7 -3 16 -2 19 1 4 3 -2 6 -13 5 -11 0 -14 -3 -6 -6z"/>
<path d="M50510 28630 c-8 -5 -11 -12 -8 -16 10 -9 38 3 38 16 0 12 -10 13
-30 0z"/>
<path d="M46820 28620 c0 -5 5 -10 10 -10 6 0 10 5 10 10 0 6 -4 10 -10 10 -5
0 -10 -4 -10 -10z"/>
<path d="M48511 28573 c-38 -136 14 -268 144 -368 115 -89 239 -180 320 -237
28 -19 108 -77 178 -128 138 -100 147 -102 147 -30 0 42 1 41 -157 151 -65 46
-147 103 -183 128 -36 25 -72 51 -82 56 -48 29 -184 132 -232 176 -76 69 -102
150 -76 239 7 25 7 36 -3 42 -27 17 -46 8 -56 -29z"/>
<path d="M49280 28387 c0 -9 76 -47 94 -47 28 0 27 20 -1 31 -36 14 -93 23
-93 16z"/>
<path d="M50475 28190 c3 -5 8 -10 11 -10 2 0 4 5 4 10 0 6 -5 10 -11 10 -5 0
-7 -4 -4 -10z"/>
<path d="M56905 28073 c-11 -3 -27 -11 -35 -18 -8 -6 -73 -20 -144 -29 -71 -9
-177 -28 -235 -42 -58 -14 -149 -34 -201 -45 -121 -26 -152 -33 -224 -53 -44
-12 -61 -14 -66 -5 -11 16 -64 -46 -122 -143 -86 -142 -153 -216 -273 -297
-151 -104 -300 -160 -705 -266 -193 -51 -386 -104 -478 -132 -46 -13 -86 -22
-89 -19 -3 3 2 8 11 12 9 3 16 10 16 15 0 9 -37 67 -50 79 -3 3 -36 49 -73
102 -37 53 -73 102 -80 110 -7 7 -28 36 -47 63 -19 28 -37 52 -40 55 -3 3 -21
25 -40 50 -19 25 -39 50 -45 56 -5 6 -28 32 -50 59 -97 115 -142 142 -223 131
-96 -13 -231 -134 -316 -283 -88 -158 -140 -355 -157 -604 -13 -186 -11 -213
17 -202 12 4 15 3 10 -5 -4 -7 -12 -12 -17 -12 -5 0 -54 -22 -108 -49 -364
-182 -639 -425 -817 -723 -193 -320 -366 -855 -464 -1433 -138 -807 -162
-1757 -69 -2650 60 -573 156 -1081 275 -1455 216 -677 449 -1024 929 -1381
102 -76 129 -95 245 -166 121 -75 234 -140 380 -218 80 -42 150 -81 156 -86 6
-5 46 -20 89 -35 43 -14 107 -40 144 -56 66 -30 243 -100 441 -176 122 -47
564 -190 695 -225 208 -57 403 -116 445 -135 25 -11 63 -26 85 -32 133 -41
168 -87 200 -259 12 -66 33 -415 33 -546 0 -11 3 -82 7 -157 9 -190 -9 -418
-38 -478 -25 -50 -74 -88 -157 -121 -30 -12 -73 -30 -95 -40 -22 -10 -141 -50
-265 -89 -685 -216 -1190 -430 -1687 -716 -530 -305 -894 -648 -1106 -1044
-157 -294 -298 -846 -361 -1420 -104 -940 -82 -1816 70 -2755 14 -88 30 -187
35 -220 23 -155 119 -593 166 -760 94 -338 188 -586 328 -864 125 -251 237
-407 393 -550 319 -292 676 -464 1347 -646 347 -94 328 -88 336 -115 73 -245
108 -347 133 -385 9 -14 12 -26 6 -30 -20 -13 42 -115 71 -115 16 0 160 -141
153 -151 -2 -4 4 -8 13 -8 10 0 54 -3 98 -7 109 -9 126 1 214 124 72 102 189
290 212 342 8 16 20 30 27 30 23 0 214 -50 292 -77 86 -29 204 -87 287 -140
91 -57 168 -128 259 -239 97 -118 140 -158 198 -184 56 -25 436 -81 817 -120
108 -11 211 -25 230 -30 19 -6 53 -10 76 -10 49 0 106 29 94 48 -9 15 -37 6
-45 -13 -4 -12 -11 -12 -45 0 -107 37 -163 110 -180 231 -33 230 -27 407 44
1249 13 160 27 333 31 385 3 52 8 113 10 135 4 44 28 413 44 675 11 184 27
559 35 840 3 102 8 244 11 315 7 191 7 922 0 1205 -9 312 -41 957 -51 1004 -2
11 -7 59 -10 106 -3 47 -10 128 -16 180 -5 52 -16 158 -24 235 -8 77 -19 174
-25 215 -5 41 -15 113 -20 160 -6 47 -15 117 -21 155 -5 39 -14 102 -19 140
-6 39 -14 99 -20 135 -6 36 -14 94 -20 130 -22 154 -106 644 -130 760 -5 25
-21 108 -35 185 -14 77 -32 169 -40 205 -7 36 -17 83 -20 105 -4 22 -15 83
-26 135 -39 189 -48 236 -60 305 -7 39 -32 167 -57 285 -24 118 -46 227 -49
243 -9 46 14 30 31 -20 33 -105 48 -174 43 -195 -4 -12 0 -29 7 -38 12 -14 35
-110 76 -310 10 -52 32 -153 49 -225 49 -208 214 -1054 241 -1240 5 -33 18
-112 29 -175 20 -113 89 -593 110 -760 57 -457 91 -869 113 -1365 20 -476 10
-1802 -17 -2275 -3 -47 -10 -177 -15 -290 -25 -508 -70 -1082 -119 -1540 -35
-321 -45 -454 -44 -607 1 -131 3 -155 19 -176 13 -17 26 -24 39 -21 20 5 97
-12 162 -36 41 -15 65 -60 68 -128 1 -29 5 -55 8 -59 4 -3 2 -12 -4 -19 -15
-19 52 -38 107 -29 31 4 55 17 82 41 43 41 92 69 92 54 0 -5 -4 -10 -10 -10
-5 0 -10 -9 -10 -19 0 -11 -10 -27 -22 -35 -12 -9 -19 -19 -15 -22 12 -12 86
16 97 36 9 18 8 267 -5 700 -3 96 -7 351 -10 565 -3 215 -7 460 -10 545 -3 85
-7 355 -10 600 -3 245 -7 603 -10 795 -13 918 -20 1644 -20 1995 l0 385 56
200 c139 491 213 913 289 1625 42 395 59 1009 48 1741 -7 539 -26 961 -83
1869 -24 388 -74 1017 -95 1205 -5 50 -21 221 -35 380 -32 361 -52 583 -65
700 -20 185 -31 296 -50 505 -12 118 -25 251 -30 295 -5 44 -18 161 -29 260
-11 99 -25 218 -31 265 -5 47 -15 141 -20 210 -6 69 -13 132 -15 140 -2 8 -7
47 -10 85 -3 39 -13 129 -21 200 -8 72 -19 175 -24 230 -15 158 -29 290 -45
425 -9 69 -18 152 -21 185 -2 33 -15 161 -29 285 -27 251 -66 633 -95 935 -10
110 -26 261 -34 335 -8 74 -20 194 -26 265 -6 72 -15 164 -20 205 -6 41 -17
158 -26 260 -25 297 -42 485 -59 635 -31 287 -40 375 -60 585 -3 30 -10 89
-16 130 -5 41 -10 84 -10 95 -1 11 -10 117 -20 235 -11 118 -24 271 -30 340
-12 151 -65 669 -80 798 -8 62 -17 95 -26 101 -10 5 -16 28 -19 67 -2 47 -1
52 5 26 14 -55 22 -50 18 12 -3 35 -10 62 -18 67 -11 7 -11 11 -1 17 18 12 11
61 -10 68 -10 3 -18 12 -18 21 0 9 -10 24 -22 34 -23 20 -31 23 -41 13 -4 -4
-21 -8 -39 -9 -74 -6 -150 -23 -159 -36 -5 -8 -9 -45 -9 -84 0 -69 -1 -70 -40
-102 -21 -18 -42 -33 -47 -33 -4 0 -39 -16 -77 -35 -80 -40 -96 -68 -96 -168
0 -93 59 -554 106 -826 13 -80 47 -279 74 -441 27 -162 54 -323 60 -358 11
-67 54 -351 70 -467 5 -38 15 -101 20 -140 86 -577 180 -1572 216 -2295 31
-616 24 -1411 -16 -1930 -28 -358 -40 -486 -90 -950 -13 -124 -60 -484 -65
-498 -6 -16 -32 -176 -50 -302 -28 -194 -62 -404 -85 -520 -6 -30 -15 -79 -19
-108 -4 -29 -12 -57 -18 -63 -6 -6 -7 9 -2 43 4 29 13 105 19 168 6 63 13 122
16 130 3 8 9 46 14 85 6 38 17 120 25 180 9 61 22 157 30 215 8 58 19 141 25
185 6 44 15 116 20 160 6 44 14 116 20 160 37 292 86 852 106 1215 3 52 9 163
14 245 12 196 6 1326 -9 1570 -10 184 -26 439 -36 578 -3 37 -7 77 -9 90 -3
12 -8 63 -10 112 -8 138 -46 537 -66 685 -12 92 -24 191 -50 425 -11 99 -29
245 -40 325 -11 80 -25 181 -30 225 -6 44 -20 136 -30 205 -11 69 -31 206 -45
305 -14 99 -33 221 -41 270 -8 50 -19 119 -25 155 -5 36 -14 90 -19 120 -5 30
-18 111 -29 180 -11 69 -31 195 -45 280 -61 378 -76 512 -78 735 -2 171 6 243
39 335 9 25 23 53 32 63 15 18 14 18 -11 6 -15 -6 -25 -16 -22 -20 3 -5 -1 -9
-9 -9 -7 0 -14 7 -14 15 0 8 4 15 9 15 4 0 8 5 8 11 0 8 -5 8 -15 -1 -8 -7
-22 -10 -31 -6 -8 3 -25 1 -37 -6 -25 -14 -89 -19 -81 -6 3 4 11 8 19 8 8 0
17 5 20 10 3 6 5 9 3 9 -2 -1 -12 -4 -23 -6z m-132 -70 c-7 -2 -19 -2 -25 0
-7 3 -2 5 12 5 14 0 19 -2 13 -5z m-76 -9 c-3 -3 -12 -4 -19 -1 -8 3 -5 6 6 6
11 1 17 -2 13 -5z m833 -240 c0 -31 -23 -28 -28 4 -2 15 2 22 12 22 11 0 16
-9 16 -26z m60 -84 c0 -5 -9 -14 -20 -20 -16 -8 -20 -8 -20 4 0 13 13 23 33
25 4 1 7 -3 7 -9z m-31 -55 l43 -7 -7 -47 c-9 -58 -21 -82 -39 -75 -8 3 -17 1
-21 -5 -9 -16 -25 -13 -25 3 0 8 8 17 18 21 16 4 42 43 42 60 0 3 -11 5 -25 5
-17 0 -25 -6 -25 -17 0 -12 -5 -9 -15 11 -8 15 -15 42 -15 60 1 27 2 29 13 15
7 -9 32 -20 56 -24z m131 -192 c0 -32 -12 -23 -16 12 -1 14 2 23 7 20 5 -4 9
-18 9 -32z m-1810 -698 c184 -19 184 -19 250 -64 30 -21 62 -40 70 -43 103
-39 227 -226 325 -488 57 -155 138 -435 174 -610 5 -25 17 -74 26 -110 9 -35
18 -80 21 -100 3 -19 8 -38 10 -41 2 -3 21 -95 42 -205 34 -171 55 -294 112
-649 13 -79 39 -285 45 -357 2 -31 9 -96 15 -146 19 -166 40 -447 39 -514 -1
-52 -5 -68 -15 -68 -18 0 -32 32 -16 38 7 2 12 9 12 15 0 8 -4 7 -12 -1 -20
-20 -31 -14 -24 14 4 15 3 23 -3 20 -12 -8 -49 37 -107 131 -27 43 -100 156
-164 252 -63 96 -132 201 -153 234 -21 33 -57 86 -80 118 -79 108 -195 270
-302 424 -20 28 -63 89 -98 136 -34 48 -110 154 -169 237 -59 82 -114 156
-121 164 -8 7 -20 25 -27 38 -7 14 -25 41 -40 60 -25 32 -58 77 -242 333 -35
48 -92 126 -128 174 -36 48 -92 127 -125 174 -33 48 -98 140 -145 204 -123
169 -222 308 -291 408 -59 86 -59 87 -37 96 60 25 534 104 718 121 69 6 134
13 145 14 53 8 163 5 295 -9z m-2301 -438 c-20 -12 -34 -27 -32 -33 2 -6 -19
-21 -47 -34 -28 -13 -54 -28 -57 -32 -2 -5 14 -33 36 -63 23 -30 41 -59 41
-65 0 -5 5 -10 11 -10 6 0 34 -24 62 -52 84 -85 366 -378 446 -464 41 -43 108
-115 150 -160 42 -44 112 -120 156 -169 93 -102 216 -235 295 -316 54 -56 118
-127 182 -204 18 -22 58 -67 88 -100 31 -33 71 -78 89 -100 35 -42 151 -170
211 -233 74 -78 209 -231 285 -322 156 -186 190 -227 280 -342 27 -35 52 -65
55 -68 6 -5 135 -172 190 -246 55 -74 209 -292 274 -388 61 -91 266 -422 266
-431 0 -1 16 -32 36 -67 92 -161 212 -416 290 -618 25 -63 48 -124 53 -135 5
-11 21 -56 36 -100 15 -44 32 -91 38 -105 13 -33 17 -47 24 -97 8 -63 -16
-516 -38 -708 -11 -93 -26 -227 -34 -296 -8 -69 -19 -139 -25 -155 -5 -16 -16
-85 -25 -154 -9 -69 -22 -161 -30 -205 -7 -44 -21 -129 -30 -190 -19 -128 -87
-400 -114 -459 -10 -23 -29 -78 -41 -124 -12 -46 -32 -104 -46 -129 -13 -25
-24 -54 -24 -64 0 -25 -54 -121 -95 -169 -12 -14 -33 -45 -48 -70 -35 -62 -89
-110 -177 -158 -57 -31 -79 -38 -92 -31 -12 7 -31 6 -57 -1 -22 -6 -73 -10
-114 -9 -41 1 -79 -1 -83 -4 -24 -14 -599 38 -714 65 -110 26 -185 34 -176 19
9 -14 -19 -14 -64 0 -19 6 -48 13 -63 15 -16 3 -47 12 -69 20 -22 8 -49 14
-59 14 -11 0 -19 4 -19 8 0 16 -78 43 -104 36 -17 -4 -35 0 -52 11 -14 9 -32
14 -39 11 -7 -2 -16 1 -19 9 -3 8 -33 23 -68 34 -136 43 -308 105 -420 152
-64 27 -119 49 -123 49 -18 0 -517 256 -567 291 -14 11 -28 19 -31 19 -3 0
-59 35 -124 78 -112 75 -239 182 -314 265 -19 22 -53 60 -77 85 -88 97 -206
269 -274 402 -15 30 -32 62 -37 70 -5 8 -26 53 -47 100 -20 47 -47 109 -60
137 -13 29 -26 65 -30 80 -4 16 -13 39 -20 53 -12 23 -43 117 -64 195 -68 251
-82 315 -120 535 -11 69 -27 163 -35 210 -22 127 -36 226 -42 312 -3 48 -11
82 -19 89 -9 7 -14 32 -14 63 0 28 -7 125 -15 216 -25 289 -26 315 -26 865 -1
639 5 795 33 795 7 0 8 -21 3 -57 -4 -32 -9 -133 -11 -224 -3 -165 -3 -167 21
-189 28 -26 25 -41 -6 -33 -18 5 -20 3 -14 -17 4 -12 3 -20 -1 -17 -5 3 -8
-34 -7 -81 1 -48 4 -217 7 -377 6 -386 15 -566 32 -655 3 -14 9 -68 14 -120 6
-52 17 -124 25 -160 8 -36 17 -101 20 -145 7 -86 25 -152 36 -134 3 6 2 27 -3
48 -5 20 -11 51 -13 69 -2 18 -6 50 -9 70 -4 20 -9 84 -12 142 -5 112 -9 183
-20 380 -12 204 -10 777 4 1030 6 129 17 328 22 442 21 439 84 802 196 1143
26 77 50 154 55 170 33 124 143 389 218 524 23 41 41 83 41 94 0 11 11 34 24
52 13 17 34 53 47 81 13 27 28 52 33 56 8 5 7 8 -1 8 -12 0 -15 -2 -81 -74
-58 -62 -204 -282 -242 -364 -17 -37 -40 -83 -49 -102 -10 -19 -22 -50 -26
-69 -8 -38 -45 -125 -50 -119 -4 4 49 169 65 203 5 11 25 62 45 112 56 147
136 270 270 414 100 109 188 182 290 246 152 94 211 121 430 198 169 60 185
64 134 32z m-1254 -1288 c-17 -43 -23 -53 -19 -29 7 36 35 102 41 96 2 -2 -8
-32 -22 -67z m-35 -140 c-6 -30 -16 -65 -23 -78 -6 -13 -12 -29 -12 -35 -2
-24 -17 -112 -22 -126 -3 -8 -7 -27 -9 -43 -2 -15 -11 -44 -19 -63 -8 -20 -16
-55 -16 -78 -2 -34 -3 -36 -6 -11 -3 17 0 53 5 80 6 28 20 97 32 155 12 58 27
121 33 140 6 19 12 41 13 49 4 22 26 72 31 68 2 -2 -1 -28 -7 -58z m-100 -486
c0 -15 -32 -148 -40 -168 -5 -11 -10 -50 -12 -87 -4 -65 -11 -88 -24 -75 -7 7
29 237 46 300 6 20 15 37 20 37 6 0 10 -3 10 -7z m-69 -416 c-2 -46 -16 -109
-24 -114 -7 -4 -8 7 -4 33 4 21 7 52 7 67 0 16 5 27 11 25 6 -2 10 -7 10 -11z
m-13 -174 c2 -38 -11 -73 -23 -61 -8 8 5 98 14 98 4 0 8 -17 9 -37z m4911
-492 c-3 -6 -10 -7 -18 -2 -7 5 -10 14 -6 21 9 14 29 -2 24 -19z m-3893 -4066
c15 -20 25 -38 22 -40 -6 -6 -68 55 -68 66 0 19 20 7 46 -26z m4295 -550 c14
-246 20 -1343 8 -1590 -12 -266 -29 -543 -44 -750 -22 -292 -27 -345 -35 -350
-4 -2 -16 26 -27 63 -12 37 -37 119 -56 182 -68 221 -112 457 -132 710 -17
206 4 629 40 795 8 39 21 106 30 150 8 44 24 123 36 175 41 186 46 216 58 300
7 47 16 112 22 145 29 183 49 327 49 354 0 16 5 42 11 58 l12 28 7 -30 c5 -16
14 -124 21 -240z m-196 -547 c-14 -66 -29 -127 -34 -137 -7 -14 -21 -71 -26
-111 -1 -8 -6 -35 -10 -60 -5 -25 -10 -70 -11 -100 -2 -30 -8 -84 -13 -120 -6
-36 -13 -213 -16 -395 -5 -289 -12 -362 -29 -344 -9 9 -15 98 -7 103 9 6 5 65
-9 136 -5 25 -7 61 -6 80 15 165 20 207 29 218 7 8 5 12 -6 12 -9 0 -14 6 -12
13 3 6 7 59 10 117 6 147 13 200 30 240 20 47 43 150 39 175 -2 11 12 74 30
140 19 66 37 142 41 169 10 74 20 87 23 33 2 -27 -8 -103 -23 -169z m-105
-1323 c0 -29 -4 -45 -12 -45 -7 0 -5 -5 5 -11 11 -6 17 -22 17 -44 0 -19 7
-60 16 -92 21 -77 33 -137 41 -201 3 -29 9 -55 14 -58 5 -3 9 -16 9 -29 0 -13
4 -34 9 -47 10 -27 25 -80 45 -162 14 -59 12 -86 -5 -86 -12 0 -29 68 -22 87
4 11 2 14 -5 9 -8 -4 -12 -1 -12 10 0 10 -11 50 -25 90 -14 40 -27 90 -29 111
-1 21 -8 51 -14 66 -7 16 -12 55 -12 88 0 33 -4 67 -9 77 -18 34 -34 101 -27
117 3 9 -1 30 -9 46 -14 26 -14 30 0 35 19 8 19 30 0 38 -28 10 -15 42 18 45
4 1 7 -19 7 -44z m167 -877 c-3 -8 -6 -5 -6 6 -1 11 2 17 5 13 3 -3 4 -12 1
-19z m25 -30 c-9 -9 -12 -7 -12 12 0 19 3 21 12 12 9 -9 9 -15 0 -24z m5 -40
c-3 -8 -6 -5 -6 6 -1 11 2 17 5 13 3 -3 4 -12 1 -19z m-1086 -159 c180 -24
285 -87 401 -243 85 -115 105 -152 134 -252 17 -58 35 -96 50 -109 47 -40 144
-336 232 -710 67 -280 70 -309 76 -595 3 -146 10 -310 15 -365 28 -276 85
-898 95 -1030 3 -38 8 -95 11 -125 8 -79 34 -545 46 -827 l10 -243 -92 -157
c-51 -87 -114 -190 -141 -230 -26 -40 -48 -75 -48 -79 0 -5 -219 -340 -303
-464 -10 -14 -42 -61 -71 -105 -30 -44 -76 -110 -102 -146 -27 -37 -68 -93
-92 -126 -23 -33 -51 -69 -61 -80 -10 -11 -30 -37 -44 -59 -15 -21 -41 -60
-59 -85 -110 -154 -198 -277 -233 -324 -22 -29 -74 -99 -115 -156 -65 -88
-126 -169 -186 -244 -9 -11 -28 -38 -42 -60 -15 -22 -33 -46 -39 -53 -7 -7
-13 -16 -13 -20 0 -4 -14 -23 -31 -42 -17 -19 -45 -55 -62 -80 -17 -25 -36
-50 -42 -56 -5 -7 -21 -26 -35 -44 -14 -18 -31 -38 -37 -45 -7 -8 -13 -21 -13
-29 0 -9 -4 -16 -9 -16 -4 0 -20 -18 -35 -41 -15 -22 -36 -48 -46 -57 -11 -9
-20 -21 -20 -27 0 -6 -11 -22 -25 -37 -14 -15 -25 -36 -25 -48 0 -11 -4 -20
-10 -20 -15 0 -43 -31 -57 -63 -7 -15 -17 -27 -23 -27 -5 0 -10 -7 -10 -15 0
-8 -7 -15 -16 -15 -10 0 -14 -6 -10 -15 3 -8 1 -15 -4 -15 -6 0 -9 -3 -8 -8 2
-4 -8 -19 -20 -32 -29 -30 -87 -113 -85 -120 1 -3 -5 -4 -13 -2 -9 2 -14 -6
-14 -21 0 -15 -10 -31 -25 -41 -14 -9 -25 -26 -25 -38 0 -12 -10 -32 -23 -43
-36 -32 -108 -127 -122 -162 -19 -45 -27 -45 -260 14 -88 21 -228 53 -237 53
-4 0 -8 -5 -8 -10 0 -6 3 -9 8 -8 4 1 31 -6 60 -16 29 -10 64 -16 78 -13 17 3
24 0 24 -11 0 -11 7 -13 30 -8 18 3 29 2 25 -4 -3 -5 3 -14 12 -20 16 -10 16
-11 -2 -5 -11 3 -83 22 -160 41 -371 92 -574 173 -792 317 -208 139 -377 316
-511 537 -62 102 -185 391 -237 560 -15 47 -31 93 -36 102 -18 35 -47 168 -33
155 4 -4 9 -13 10 -20 3 -19 30 -104 63 -197 17 -47 30 -93 31 -102 0 -10 4
-18 9 -18 5 0 17 -26 27 -57 25 -78 164 -353 197 -389 15 -16 27 -35 27 -43 0
-7 12 -28 28 -46 15 -18 47 -60 71 -93 27 -37 49 -58 58 -55 9 3 11 0 8 -10
-4 -9 1 -16 14 -20 26 -6 26 0 3 34 -9 15 -33 51 -53 80 -19 30 -76 137 -126
239 -216 439 -365 928 -462 1520 -33 198 -78 525 -90 645 -49 507 -56 650 -55
1115 1 409 11 593 50 975 3 33 8 87 10 120 2 33 9 85 15 115 7 30 14 75 16
100 7 83 10 96 17 109 9 15 -2 71 -15 71 -5 0 -9 -6 -9 -14 0 -7 -7 -19 -15
-26 -13 -10 -15 -9 -15 10 0 23 45 201 59 235 5 11 18 52 31 90 118 373 394
792 667 1011 26 22 61 51 78 67 16 15 48 39 70 54 22 15 56 39 75 54 19 14 62
41 95 59 33 18 78 43 100 56 78 45 211 115 285 150 41 19 102 48 135 64 33 15
92 40 130 55 39 15 84 33 100 40 17 8 66 28 110 45 44 17 94 37 110 45 150 68
595 203 745 225 30 4 87 15 125 23 89 20 188 31 160 18 -19 -9 -19 -10 -1 -10
10 -1 24 6 30 14 20 28 385 44 537 24z m-3635 -2405 c-3 -9 -6 -24 -6 -35 0
-10 -4 -19 -8 -19 -4 0 -6 16 -4 35 2 19 9 35 14 35 6 0 7 -7 4 -16z m-48
-244 c-6 -23 -13 -39 -15 -36 -7 7 8 76 17 76 4 0 3 -18 -2 -40z m-91 -1592
c-3 -8 -6 -5 -6 6 -1 11 2 17 5 13 3 -3 4 -12 1 -19z m44 -214 c29 -28 38 -54
19 -54 -6 0 -22 11 -35 25 -20 19 -25 34 -24 67 1 27 3 33 6 17 2 -15 17 -39
34 -55z m-1 -254 c0 -5 -2 -10 -4 -10 -3 0 -8 5 -11 10 -3 6 -1 10 4 10 6 0
11 -4 11 -10z m13 -220 c3 -11 1 -20 -4 -20 -5 0 -9 9 -9 20 0 11 2 20 4 20 2
0 6 -9 9 -20z m4 -142 c-3 -8 -6 -5 -6 6 -1 11 2 17 5 13 3 -3 4 -12 1 -19z
m50 -370 c-3 -7 -5 -2 -5 12 0 14 2 19 5 13 2 -7 2 -19 0 -25z m20 -110 c-3
-8 -6 -5 -6 6 -1 11 2 17 5 13 3 -3 4 -12 1 -19z m42 -193 c7 -44 23 -125 36
-180 33 -138 41 -214 10 -95 -25 96 -86 405 -84 431 1 26 26 -76 38 -156z m90
-430 l0 -20 -9 20 c-5 11 -9 29 -9 40 l0 20 9 -20 c5 -11 9 -29 9 -40z m30
-90 c5 -22 13 -51 17 -65 4 -17 3 -22 -3 -15 -6 6 -15 28 -21 50 -6 22 -14 51
-18 65 -5 18 -4 22 4 15 6 -5 15 -28 21 -50z m4574 -475 c-3 -419 -9 -546 -35
-665 -64 -306 -139 -523 -222 -647 -110 -166 -246 -240 -492 -267 -155 -18
-188 -19 -206 -7 -13 8 -26 7 -49 -1 -23 -9 -37 -9 -52 -1 -16 8 -22 8 -25 -1
-4 -13 -42 -15 -42 -2 0 5 -9 13 -20 16 -11 3 -20 12 -20 18 0 12 64 141 115
232 16 28 44 79 63 115 19 36 50 92 69 125 39 67 47 83 79 140 12 22 48 85 79
140 63 110 86 150 135 240 18 33 44 76 57 95 12 19 23 38 23 41 0 7 90 161
200 344 114 188 160 266 161 273 0 4 27 50 60 102 32 52 72 119 87 148 24 47
28 51 33 30 3 -13 4 -223 2 -468z m-2253 -1414 l45 -15 -35 0 c-39 0 -111 27
-75 28 11 0 40 -6 65 -13z m150 -32 c47 -9 109 -20 139 -26 35 -6 50 -13 43
-20 -7 -7 -17 -6 -32 2 -14 7 -45 10 -77 8 -30 -3 -49 -2 -43 2 15 9 -11 20
-48 20 -26 1 -97 28 -77 29 6 1 48 -6 95 -15z m280 -53 c19 -5 77 -15 128 -21
50 -7 92 -16 92 -20 0 -8 -66 -6 -140 5 -60 10 -58 9 -80 17 -8 3 -31 10 -50
16 -29 8 -31 10 -10 11 14 0 41 -3 60 -8z m371 -51 c22 0 39 -4 39 -10 0 -11
-124 -2 -155 12 -13 6 -4 7 29 3 27 -3 66 -5 87 -5z m2526 -27 c-3 -10 -5 -4
-5 12 0 17 2 24 5 18 2 -7 2 -21 0 -30z m-2367 2 c0 -8 -6 -15 -14 -15 -17 0
-28 14 -19 24 12 12 33 6 33 -9z m100 -5 c0 -5 -11 -10 -25 -10 -14 0 -25 5
-25 10 0 6 11 10 25 10 14 0 25 -4 25 -10z m2290 -451 c0 -11 -4 -18 -10 -14
-5 3 -7 12 -3 20 7 21 13 19 13 -6z m-110 -156 c0 -7 -4 -13 -9 -13 -10 0 -21
25 -21 48 1 15 3 14 15 -2 8 -11 15 -26 15 -33z m-50 -69 c0 -17 -5 -22 -20
-21 -16 1 -20 8 -20 41 0 38 0 39 20 21 11 -10 20 -28 20 -41z m137 -16 c-3
-8 -6 -5 -6 6 -1 11 2 17 5 13 3 -3 4 -12 1 -19z"/>
<path d="M52218 21384 c-3 -12 -2 -28 3 -35 4 -8 6 -24 3 -35 -3 -12 -1 -25 5
-28 6 -4 11 -20 11 -36 0 -17 4 -49 10 -72 10 -46 25 -128 40 -222 6 -33 15
-65 21 -72 6 -7 8 -17 5 -23 -4 -5 -2 -20 3 -33 5 -13 12 -36 16 -51 3 -15 10
-25 16 -21 6 3 8 18 4 32 -3 15 -7 37 -10 50 -2 12 -6 26 -9 30 -8 14 -63 265
-71 322 -12 98 -41 217 -47 194z"/>
<path d="M52360 20696 c0 -8 5 -18 10 -21 6 -3 10 3 10 14 0 12 -4 21 -10 21
-5 0 -10 -6 -10 -14z"/>
<path d="M55415 15589 c-27 -10 -59 -19 -70 -19 -11 0 -58 -12 -105 -26 -47
-14 -122 -37 -168 -50 -46 -14 -91 -29 -100 -34 -9 -5 -50 -21 -90 -34 -72
-25 -155 -65 -138 -66 5 0 43 11 85 24 42 14 164 53 271 86 107 34 218 70 245
80 28 10 74 26 103 35 28 9 52 18 52 21 0 9 -37 1 -85 -17z"/>
<path d="M55208 15573 c6 -2 18 -2 25 0 6 3 1 5 -13 5 -14 0 -19 -2 -12 -5z"/>
<path d="M55103 15543 c9 -2 23 -2 30 0 6 3 -1 5 -18 5 -16 0 -22 -2 -12 -5z"/>
<path d="M54275 7730 c3 -5 10 -10 16 -10 5 0 9 5 9 10 0 6 -7 10 -16 10 -8 0
-12 -4 -9 -10z"/>
<path d="M57208 28004 c-4 -3 -4 -12 -1 -20 4 -10 0 -12 -11 -8 -9 3 -16 1
-16 -4 0 -6 12 -12 28 -14 22 -2 27 -7 24 -28 -1 -14 -11 -33 -22 -42 l-21
-17 20 -11 c26 -13 47 -50 34 -59 -37 -25 -3 -82 36 -62 11 7 28 25 37 42 10
20 11 28 4 24 -10 -6 -11 6 -7 49 4 44 2 56 -9 56 -8 0 -14 8 -14 19 0 10 -7
24 -15 31 -8 7 -14 20 -13 29 3 16 -41 29 -54 15z"/>
<path d="M50542 27373 c-7 -3 -23 -26 -37 -52 -43 -86 -133 -143 -192 -120
-13 5 -42 9 -63 9 -51 0 -72 -31 -78 -110 -4 -54 -3 -58 26 -79 17 -11 34 -21
38 -21 4 0 25 -12 46 -26 21 -15 42 -24 45 -20 7 6 11 74 12 174 0 22 5 32 16
32 8 0 15 7 15 15 0 27 45 17 76 -17 36 -41 54 -80 54 -118 0 -36 10 -61 21
-54 5 3 9 15 9 27 0 20 0 20 14 2 8 -11 13 -24 12 -30 -2 -5 -1 -7 1 -2 9 14
24 6 33 -18 7 -18 17 -25 36 -25 16 0 24 -5 21 -12 -2 -7 -10 -12 -16 -10 -13
2 -14 -17 -2 -36 6 -10 12 -7 24 12 10 14 17 33 17 43 0 10 7 27 15 37 8 11
15 37 15 59 0 44 19 70 41 56 9 -6 10 -9 2 -9 -7 0 -10 -7 -6 -16 4 -12 9 -8
19 16 8 18 14 41 14 51 0 20 -59 142 -82 169 -32 39 -119 82 -146 73z"/>
<path d="M48918 27060 c12 -10 28 -21 35 -23 9 -4 9 -8 -1 -15 -11 -7 -10 -12
3 -26 9 -9 20 -16 25 -16 4 0 17 -15 29 -32 11 -18 21 -26 21 -18 0 8 6 4 13
-10 9 -18 20 -24 37 -22 13 1 33 -4 45 -12 22 -14 23 -13 28 22 3 20 8 51 12
68 l7 31 -104 28 c-56 15 -113 31 -126 36 -37 15 -49 10 -24 -11z"/>
<path d="M50751 27024 c0 -11 3 -14 6 -6 3 7 2 16 -1 19 -3 4 -6 -2 -5 -13z"/>
<path d="M50263 26058 c-17 -27 -53 -111 -53 -123 0 -7 15 -23 34 -35 20 -12
43 -39 55 -63 21 -45 44 -154 35 -168 -12 -19 8 -30 26 -14 15 14 18 14 30 0
7 -8 20 -15 29 -16 12 0 11 -2 -4 -9 -11 -5 -14 -9 -7 -9 9 -1 13 -13 11 -38
-3 -43 13 -47 44 -11 13 16 15 24 6 35 -9 10 -9 23 0 51 7 21 12 44 11 52 -4
28 0 40 15 40 11 0 15 -12 15 -47 0 -25 3 -43 7 -40 10 11 4 143 -9 211 -9 50
-19 67 -57 106 -31 31 -66 54 -104 68 -67 26 -73 26 -84 10z"/>
<path d="M50063 26010 c-28 -11 -30 -20 -4 -20 10 0 21 7 25 15 3 8 4 15 3 14
-1 0 -12 -4 -24 -9z"/>
<path d="M49917 25843 c-12 -11 -7 -100 6 -110 6 -6 30 -16 52 -22 22 -7 49
-16 60 -20 11 -5 32 -13 48 -20 15 -6 27 -15 27 -21 0 -5 8 -10 18 -10 18 0
20 12 25 155 2 48 1 50 -23 47 -58 -6 -128 -6 -166 1 -22 4 -44 4 -47 0z"/>
<path d="M50050 25452 c0 -5 7 -15 15 -22 8 -7 15 -9 15 -6 0 4 -7 14 -15 22
-8 9 -15 11 -15 6z"/>
<path d="M49868 24726 c-32 -11 -37 -26 -9 -26 17 0 49 27 40 33 -2 2 -16 -1
-31 -7z"/>
<path d="M50027 24669 l-37 -71 25 -29 c13 -17 30 -49 36 -72 20 -74 19 -71
31 -59 17 17 38 15 38 -3 0 -8 14 -17 34 -21 23 -4 33 -10 30 -19 -3 -7 0 -16
6 -20 9 -5 9 -10 1 -14 -5 -4 -8 -17 -4 -29 5 -21 8 -19 26 20 11 24 23 63 26
88 4 32 11 46 24 48 10 2 17 0 16 -5 -1 -4 0 -15 4 -23 3 -8 8 -22 10 -30 3
-8 6 11 6 43 1 65 -28 131 -78 177 -38 35 -125 90 -142 90 -8 0 -31 -32 -52
-71z"/>
<path d="M49671 24513 c-11 -43 -14 -67 -12 -105 1 -24 11 -32 84 -67 75 -37
83 -38 94 -23 7 9 18 24 25 32 7 8 14 39 16 70 1 30 3 70 5 88 l2 34 -102 4
-102 5 -10 -38z"/>
<path d="M49765 23429 c-43 -118 -52 -169 -21 -126 18 23 67 22 99 -3 50 -40
80 -161 58 -237 -5 -17 -6 -34 -3 -38 4 -4 7 -17 7 -28 0 -12 6 -22 13 -23 6
-1 17 -2 23 -3 7 -1 9 -11 5 -26 -4 -14 -2 -25 3 -25 13 0 31 33 31 57 0 25
53 193 62 193 3 0 9 -8 11 -17 3 -10 5 5 6 33 1 35 -4 56 -14 64 -8 7 -15 19
-15 27 0 20 -100 116 -142 136 -51 24 -116 33 -123 16z"/>
<path d="M49565 23370 c-8 -13 5 -13 25 0 13 8 13 10 -2 10 -9 0 -20 -4 -23
-10z"/>
<path d="M49666 23243 l-39 -36 -104 6 c-104 5 -104 5 -114 -20 -5 -13 -9 -41
-9 -62 l0 -38 83 -22 c45 -12 92 -23 105 -24 12 -1 22 -4 22 -8 0 -4 16 -13
36 -19 32 -11 38 -10 55 9 10 11 19 34 19 50 0 17 5 51 12 75 12 47 3 117 -17
122 -5 2 -27 -13 -49 -33z"/>
<path d="M49865 22970 c-3 -5 1 -10 9 -10 9 0 16 5 16 10 0 6 -4 10 -9 10 -6
0 -13 -4 -16 -10z"/>
<path d="M49471 22881 c29 -40 91 -75 106 -60 21 21 1 46 -50 64 -29 10 -58
20 -66 23 -8 3 -4 -8 10 -27z"/>
<path d="M49394 22125 c-10 -8 -27 -15 -36 -15 -10 0 -18 -4 -18 -10 0 -11 60
-13 76 -2 6 4 13 15 17 25 8 21 -12 23 -39 2z"/>
<path d="M49583 22127 c-9 -11 -63 -125 -63 -132 0 -2 13 -6 29 -10 33 -7 61
-36 81 -85 18 -43 47 -73 54 -57 5 9 7 9 12 0 3 -7 14 -13 24 -13 9 0 23 -7
30 -15 7 -8 9 -15 4 -15 -5 0 1 -7 13 -15 14 -10 23 -28 25 -53 l3 -37 13 41
c7 23 19 47 27 54 13 11 15 6 16 -36 l0 -49 15 45 c12 41 12 52 -5 120 -32
126 -52 160 -120 206 -75 51 -142 73 -158 51z m234 -229 c-3 -8 -6 -5 -6 6 -1
11 2 17 5 13 3 -3 4 -12 1 -19z m-27 -82 c0 -3 -4 -8 -10 -11 -5 -3 -10 -1
-10 4 0 6 5 11 10 11 6 0 10 -2 10 -4z"/>
<path d="M49345 21943 l-110 -4 -14 -31 c-20 -44 -20 -143 -1 -162 23 -22 159
-76 175 -70 11 5 13 2 9 -10 -3 -9 -1 -16 5 -16 6 0 16 11 21 24 5 13 14 26
21 28 15 5 19 92 9 156 -6 31 -4 47 6 57 17 17 18 36 2 33 -7 -1 -63 -4 -123
-5z"/>
<path d="M49332 20813 c-5 -10 -15 -38 -22 -63 -22 -72 -52 -115 -99 -140 -25
-13 -120 -15 -208 -4 -50 6 -53 5 -63 -21 -15 -40 -12 -73 8 -83 9 -5 46 -15
82 -22 36 -7 70 -16 75 -20 6 -4 26 -13 45 -20 19 -7 47 -22 61 -31 26 -18 27
-18 59 11 26 23 31 34 26 54 -3 13 -1 37 4 51 7 20 6 40 -4 76 -12 40 -13 49
-2 49 8 0 16 9 19 20 7 28 49 26 86 -6 20 -17 36 -44 47 -79 15 -53 16 -155 2
-155 -17 0 -7 -19 13 -25 17 -6 19 -9 8 -17 -16 -11 2 -7 64 14 33 12 37 16
35 45 -1 17 4 38 10 46 7 8 10 21 7 30 -4 8 2 21 12 28 32 23 34 35 13 84 -27
64 -108 142 -168 164 -84 31 -100 33 -110 14z"/>
<path d="M49106 20789 c-27 -16 -47 -31 -45 -33 2 -2 20 -6 40 -9 34 -5 40 -2
68 34 32 39 32 39 8 39 -13 0 -45 -14 -71 -31z"/>
<path d="M49215 20760 c-3 -5 -1 -10 4 -10 6 0 11 5 11 10 0 6 -2 10 -4 10 -3
0 -8 -4 -11 -10z"/>
<path d="M49537 20358 c-6 -21 -2 -36 7 -27 10 11 16 49 8 49 -5 0 -12 -10
-15 -22z"/>
<path d="M49425 20340 c3 -5 8 -10 11 -10 2 0 4 5 4 10 0 6 -5 10 -11 10 -5 0
-7 -4 -4 -10z"/>
<path d="M48996 20293 c10 -47 108 -124 135 -107 12 7 11 28 -3 58 -10 24 -61
55 -116 71 -21 6 -22 4 -16 -22z"/>
<path d="M49356 20283 c-4 -5 -11 -8 -14 -9 -30 -4 -42 -19 -42 -53 l0 -36 16
33 c9 17 23 32 30 32 8 0 14 6 14 14 0 8 6 17 13 19 6 3 7 6 1 6 -6 1 -14 -2
-18 -6z"/>
<path d="M49515 20280 c-3 -5 -1 -10 4 -10 6 0 11 5 11 10 0 6 -2 10 -4 10 -3
0 -8 -4 -11 -10z"/>
<path d="M48930 19510 c-10 -7 7 -8 55 -4 39 4 72 8 74 10 10 9 -116 3 -129
-6z"/>
<path d="M49120 19501 c0 -6 -14 -34 -32 -63 -20 -32 -28 -53 -20 -56 24 -8
64 -46 74 -71 6 -14 16 -48 23 -76 7 -30 17 -49 25 -47 17 4 41 -18 38 -36 -2
-10 12 -20 39 -29 25 -8 45 -22 48 -34 7 -22 25 -26 25 -4 0 23 32 85 42 79 4
-3 8 -19 8 -36 0 -42 11 -29 21 25 11 62 -18 182 -54 222 -59 65 -94 96 -126
111 -44 21 -111 30 -111 15z"/>
<path d="M48752 19296 c-14 -33 -24 -75 -25 -112 l-1 -59 94 -47 c52 -25 100
-47 105 -47 6 0 21 14 34 31 20 25 25 44 27 106 2 43 6 101 9 130 l6 52 -113
0 -113 0 -23 -54z"/>
<path d="M48825 18890 c3 -5 11 -10 16 -10 6 0 7 5 4 10 -3 6 -11 10 -16 10
-6 0 -7 -4 -4 -10z"/>
<path d="M48675 18192 c-54 -26 -94 -57 -84 -66 2 -2 23 -6 46 -10 38 -6 45
-3 72 26 17 18 31 41 31 50 0 9 6 19 13 21 8 4 7 6 -3 6 -8 1 -42 -12 -75 -27z"/>
<path d="M48861 18132 c-28 -87 -48 -115 -105 -144 -35 -18 -54 -20 -147 -16
-118 5 -119 5 -119 -64 0 -24 5 -27 53 -37 95 -21 178 -53 213 -83 33 -30 35
-30 54 -13 22 20 26 84 11 163 -12 61 18 122 61 122 95 0 144 -215 77 -340
-26 -48 -104 -114 -125 -106 -11 4 -14 -6 -14 -38 l0 -43 65 12 c76 15 136 52
162 100 10 19 33 62 51 97 18 35 40 70 49 78 13 13 15 11 11 -22 -2 -21 -1
-38 3 -38 3 0 9 35 13 78 5 58 3 90 -10 132 -35 117 -72 161 -179 212 -91 43
-96 41 -124 -50z"/>
<path d="M48530 17705 c0 -39 106 -155 129 -141 16 10 0 46 -28 61 -14 8 -21
14 -15 15 6 0 9 10 7 24 -4 17 -15 27 -43 35 -42 12 -50 13 -50 6z"/>
<path d="M48627 16861 c-25 -45 -26 -51 -11 -65 8 -9 21 -16 28 -16 7 0 25
-23 40 -50 23 -43 28 -64 29 -128 0 -72 -11 -130 -36 -177 -7 -13 -6 -20 2
-23 23 -8 10 -22 -16 -16 -22 6 -25 4 -20 -10 4 -10 3 -15 -3 -11 -6 3 -10 2
-10 -3 0 -5 -13 -12 -30 -15 -29 -6 -30 -8 -26 -54 2 -27 4 -54 5 -60 1 -15
37 -18 45 -4 4 5 27 20 54 32 132 64 210 140 231 226 44 179 -13 318 -164 397
-71 37 -85 35 -118 -23z"/>
<path d="M48378 16753 c-45 -3 -59 -8 -71 -27 -21 -32 -47 -123 -47 -166 l0
-37 87 -34 c48 -19 97 -38 110 -43 19 -8 27 -4 54 28 l32 37 1 122 1 123 -55
0 c-30 0 -80 -1 -112 -3z"/>
<path d="M48340 16321 c0 -10 62 -62 67 -57 2 2 1 11 -3 20 -7 19 -64 52 -64
37z"/>
<path d="M48426 15588 c-21 -69 -24 -88 -11 -88 7 0 18 -7 25 -15 7 -9 18 -14
23 -12 32 10 87 -102 87 -177 0 -103 -60 -210 -135 -240 -25 -10 -27 -16 -28
-74 -2 -49 1 -63 14 -67 21 -7 46 3 53 21 3 8 13 14 23 14 10 0 29 9 43 20 14
11 31 20 38 20 7 0 10 5 7 10 -4 6 5 10 20 10 18 0 28 7 35 25 5 14 13 25 18
25 4 0 13 12 20 28 7 15 20 41 30 57 27 47 24 225 -5 285 -41 86 -128 155
-219 174 -27 6 -32 4 -38 -16z"/>
<path d="M48265 15580 c-3 -5 -15 -10 -25 -10 -27 0 -70 -21 -64 -31 8 -13 54
-11 67 4 23 24 39 47 34 47 -3 0 -9 -4 -12 -10z"/>
<path d="M48313 15414 c-34 -21 -60 -27 -145 -32 -97 -7 -103 -8 -115 -33 -8
-16 -9 -36 -5 -54 8 -27 15 -31 102 -52 52 -13 113 -32 137 -44 46 -22 77 -19
88 9 19 43 22 181 5 212 -13 25 -16 25 -67 -6z"/>
<path d="M48114 15061 c15 -28 99 -101 117 -101 5 0 9 8 9 18 0 33 -12 62 -26
62 -8 0 -14 5 -14 10 0 6 -6 10 -14 10 -8 0 -16 4 -18 9 -1 5 -18 12 -36 16
l-34 7 16 -31z"/>
<path d="M48210 14263 c15 -50 22 -63 35 -63 21 0 72 -69 83 -112 31 -122 -45
-286 -141 -305 -29 -6 -29 -7 -23 -57 3 -28 6 -58 6 -67 0 -12 11 -18 38 -22
66 -8 147 55 210 166 27 48 28 84 3 92 -11 3 -22 12 -25 20 -3 8 -12 15 -21
15 -21 0 -19 13 5 28 14 9 20 23 20 49 0 29 3 34 12 25 23 -23 29 -12 22 36
-12 83 -55 138 -149 193 -66 38 -86 38 -75 2z"/>
<path d="M48105 14167 c-31 -12 -90 -22 -152 -26 -56 -3 -107 -11 -112 -16
-16 -17 -40 -146 -27 -150 6 -2 51 -13 101 -25 49 -11 114 -32 144 -45 29 -14
54 -25 56 -25 7 0 43 39 55 60 12 19 14 45 9 110 -3 47 -9 93 -13 103 -6 12
-4 17 10 17 19 0 11 13 -9 15 -7 1 -34 -7 -62 -18z"/>
<path d="M47850 13793 c0 -40 95 -119 150 -125 23 -3 25 0 22 32 -5 55 -24 75
-82 88 -59 14 -90 15 -90 5z"/>
<path d="M47986 12931 c-3 -4 6 -19 19 -31 l25 -24 -11 32 c-11 32 -23 40 -33
23z"/>
<path d="M48050 12930 c0 -5 4 -10 10 -10 34 0 100 -106 100 -160 0 -33 14
-40 29 -12 7 13 0 32 -27 78 -41 67 -57 85 -90 103 -14 7 -22 8 -22 1z"/>
<path d="M47926 12885 c-27 -21 -145 -45 -220 -45 -52 0 -66 -3 -66 -15 0 -8
-3 -15 -8 -15 -4 0 -12 -12 -19 -27 -27 -66 -24 -118 8 -112 8 2 23 0 34 -4
11 -4 82 -18 158 -32 183 -34 195 -27 203 114 7 116 -35 179 -90 136z"/>
<path d="M48166 12700 c-23 -82 -32 -102 -67 -140 l-39 -42 12 -69 c7 -38 15
-69 19 -69 16 0 67 61 87 103 25 53 28 124 9 192 -12 45 -14 47 -21 25z"/>
<path d="M47620 12491 c0 -4 10 -23 23 -42 17 -26 42 -42 107 -68 47 -19 109
-36 138 -39 45 -4 52 -2 53 14 2 29 -1 46 -12 75 -9 23 -20 27 -132 47 -130
24 -177 27 -177 13z"/>
<path d="M47906 12322 c-3 -6 -1 -14 5 -17 14 -9 20 -2 10 14 -6 8 -11 9 -15
3z"/>
<path d="M47867 11593 c-11 -10 -8 -63 3 -63 6 0 10 -6 10 -12 0 -20 45 -68
64 -68 40 0 24 67 -30 126 -24 25 -36 29 -47 17z"/>
<path d="M47423 11465 c-24 -53 -29 -107 -14 -148 8 -21 22 -28 78 -41 37 -8
95 -24 127 -36 77 -26 98 -25 127 6 21 23 24 36 27 129 2 58 -1 112 -7 122 -9
16 -26 18 -162 18 l-152 0 -24 -50z"/>
<path d="M47840 11158 l-33 -27 14 -45 c7 -25 17 -46 22 -46 28 0 117 104 117
137 0 4 -20 8 -44 8 -33 0 -52 -6 -76 -27z"/>
<path d="M47496 11091 c5 -5 25 -14 45 -20 20 -7 45 -21 55 -33 11 -12 14 -18
7 -15 -6 4 -14 3 -17 -2 -7 -10 96 -32 106 -22 19 18 -27 52 -103 76 -85 27
-109 31 -93 16z"/>
<path d="M47735 10990 c3 -5 11 -10 16 -10 6 0 7 5 4 10 -3 6 -11 10 -16 10
-6 0 -7 -4 -4 -10z"/>
<path d="M47440 10369 c-14 -6 -38 -8 -55 -5 -31 6 -59 -8 -104 -50 l-22 -22
63 -11 c35 -5 93 -13 129 -17 63 -6 67 -5 74 15 4 13 5 23 3 24 -75 39 -78 47
-28 64 l35 12 -35 0 c-19 0 -46 -5 -60 -10z"/>
<path d="M47680 10216 c0 -8 4 -17 9 -20 5 -4 7 3 4 14 -6 23 -13 26 -13 6z"/>
<path d="M47608 10170 c-54 -56 -140 -66 -341 -39 -102 14 -107 11 -114 -54
-6 -52 -9 -50 107 -68 41 -6 136 -24 210 -40 74 -16 140 -29 146 -29 6 0 25
14 42 31 28 29 30 36 27 88 -9 145 -24 166 -77 111z"/>
<path d="M47291 9826 c24 -23 108 -57 151 -61 29 -3 73 -9 98 -14 28 -6 52 -6
63 0 24 13 14 25 -25 32 -254 46 -297 52 -287 43z"/>
<path d="M47288 9758 c5 -5 16 -8 23 -6 8 3 3 7 -10 11 -17 4 -21 3 -13 -5z"/>
<path d="M47125 9037 c-21 -12 -37 -26 -37 -32 2 -12 80 -23 176 -24 60 -1 67
1 56 14 -7 8 -19 15 -26 15 -24 0 -16 38 9 42 12 2 -14 4 -59 5 -66 1 -88 -3
-119 -20z"/>
<path d="M46946 8828 c-21 -34 -28 -65 -16 -73 5 -3 10 -21 10 -40 0 -33 0
-33 71 -49 92 -21 99 -20 94 4 -5 25 23 39 36 19 7 -12 11 -12 18 -1 6 11 11
11 24 -2 8 -9 22 -16 31 -16 8 0 42 -16 75 -35 32 -19 64 -35 70 -35 6 0 11
-9 11 -20 0 -14 7 -20 23 -20 13 0 32 9 42 20 10 11 14 20 10 20 -4 0 0 9 9
19 23 25 13 41 -24 41 -44 0 -58 55 -16 66 16 4 26 15 30 36 12 60 17 58 -126
58 -73 0 -178 7 -233 15 -128 18 -122 19 -139 -7z"/>
<path d="M47210 8430 c0 -5 12 -10 28 -10 21 0 24 2 12 10 -20 13 -40 13 -40
0z"/>
<path d="M58017 6493 c-18 -18 11 -37 39 -26 15 6 15 8 -2 20 -20 15 -28 16
-37 6z"/>
<path d="M58032 6443 c-6 -2 -10 -9 -6 -14 8 -14 21 -11 28 6 6 15 1 17 -22 8z"/>
<path d="M58025 6370 c-3 -5 1 -10 9 -10 9 0 16 5 16 10 0 6 -4 10 -9 10 -6 0
-13 -4 -16 -10z"/>
<path d="M45897 5483 c-4 -3 -7 -11 -7 -17 0 -6 5 -5 12 2 6 6 9 14 7 17 -3 3
-9 2 -12 -2z"/>
<path d="M46020 5440 c-22 -30 -26 -55 -11 -65 5 -3 7 -21 4 -40 -3 -22 -2
-35 5 -35 11 0 10 -51 -4 -130 -6 -40 -6 -44 8 -32 23 19 30 1 19 -47 -24
-109 36 19 71 149 35 131 39 152 33 171 -9 27 -25 23 -25 -6 0 -14 -5 -25 -10
-25 -11 0 -15 7 -24 51 -9 39 -41 44 -66 9z m67 -162 c-3 -8 -6 -5 -6 6 -1 11
2 17 5 13 3 -3 4 -12 1 -19z m-7 -51 c0 -42 -12 -67 -31 -67 -11 0 -19 5 -19
10 0 6 5 10 10 10 6 0 10 15 10 33 0 19 3 37 6 40 11 11 24 -3 24 -26z"/>
<path d="M45865 5440 c-17 -7 -15 -9 13 -9 17 -1 32 4 32 9 0 12 -17 12 -45 0z"/>
<path d="M46000 4967 c-28 -63 -72 -161 -111 -242 -15 -33 -31 -73 -35 -90 -4
-16 -12 -37 -19 -45 -7 -8 -16 -26 -20 -40 -4 -14 -25 -60 -46 -103 -22 -43
-37 -83 -34 -87 3 -5 0 -12 -7 -17 -17 -11 -48 -67 -48 -87 0 -9 -4 -16 -8
-16 -5 0 -18 -18 -30 -39 -13 -22 -35 -50 -50 -63 -29 -24 -32 -57 -7 -78 10
-8 21 -1 49 32 20 23 43 54 50 68 7 14 36 69 64 124 29 54 52 107 52 118 0 10
6 21 13 24 8 3 14 10 14 17 0 7 7 28 16 47 8 19 23 55 31 80 34 99 47 136 55
155 32 72 104 286 98 291 -2 2 -14 -20 -27 -49z"/>
<path d="M45178 4971 c-10 -20 -26 -61 -37 -91 -10 -30 -26 -72 -35 -92 -20
-46 -4 -60 20 -18 10 16 25 31 34 31 32 3 56 -3 73 -19 19 -16 53 -38 77 -47
8 -3 62 -29 120 -57 58 -28 120 -58 138 -66 26 -13 32 -21 32 -47 0 -18 -9
-52 -20 -76 -11 -24 -20 -53 -20 -64 0 -18 3 -17 25 9 13 16 27 36 30 46 3 9
34 42 69 73 62 55 107 112 142 179 18 35 35 88 28 88 -2 0 -20 -16 -38 -35
-19 -19 -39 -35 -45 -35 -20 0 -29 35 -21 80 5 25 7 47 5 48 -2 2 -13 -14 -25
-37 -11 -23 -22 -41 -24 -41 -1 0 -29 9 -62 20 -32 11 -66 20 -76 20 -9 0 -18
4 -20 8 -4 11 -182 74 -221 78 -18 2 -39 5 -47 7 -22 4 -63 34 -75 56 -9 17
-12 15 -27 -18z m460 -239 c2 -7 -2 -10 -12 -6 -9 3 -16 11 -16 16 0 13 23 5
28 -10z m2 -47 c14 -17 5 -35 -19 -35 -14 0 -17 6 -13 25 5 28 14 31 32 10z"/>
<path d="M45365 4170 c-3 -5 1 -10 9 -10 8 0 18 5 21 10 3 6 -1 10 -9 10 -8 0
-18 -4 -21 -10z"/>
<path d="M45520 4069 c0 -5 5 -7 10 -4 6 3 10 8 10 11 0 2 -4 4 -10 4 -5 0
-10 -5 -10 -11z"/>
<path d="M45571 4004 c0 -11 3 -14 6 -6 3 7 2 16 -1 19 -3 4 -6 -2 -5 -13z"/>
<path d="M45681 3873 c-21 -43 -46 -104 -55 -137 -25 -84 -13 -106 72 -142
l67 -28 -33 -10 c-17 -5 -32 -13 -32 -17 0 -8 126 -71 170 -84 14 -4 66 -27
115 -50 50 -23 140 -64 200 -90 61 -26 136 -61 167 -77 64 -31 98 -36 98 -13
0 8 -5 15 -11 15 -10 0 -49 37 -49 46 0 2 24 -6 53 -17 28 -12 72 -30 97 -39
59 -24 257 -107 295 -124 81 -37 491 -184 855 -306 96 -32 254 -85 350 -119
321 -111 673 -232 890 -305 118 -41 311 -108 429 -150 118 -42 218 -75 223
-74 6 2 -97 48 -229 102 -225 94 -564 236 -608 256 -11 4 -105 44 -210 88
-361 152 -600 253 -630 267 -291 129 -571 262 -990 472 -280 140 -517 258
-525 263 -8 4 -33 16 -55 26 -21 11 -77 40 -123 67 -46 26 -88 47 -93 47 -5 0
-9 4 -9 8 0 4 -17 14 -37 21 -21 8 -45 19 -53 26 -15 13 -286 155 -295 155 -3
0 -22 -35 -44 -77z m295 -398 c10 -8 15 -14 9 -14 -5 0 -19 6 -29 14 -11 8
-15 15 -10 15 6 0 19 -7 30 -15z m349 -156 c5 -5 -5 -4 -23 2 -17 6 -32 13
-32 16 0 7 43 -8 55 -18z"/>
<path d="M51195 3370 c3 -5 10 -10 16 -10 5 0 9 5 9 10 0 6 -7 10 -16 10 -8 0
-12 -4 -9 -10z"/>
<path d="M51470 3215 c13 -14 30 -25 38 -25 12 0 9 7 -8 25 -13 14 -30 25 -38
25 -12 0 -9 -7 8 -25z"/>
<path d="M46474 3221 c4 -6 2 -11 -5 -11 -25 0 6 -18 56 -33 28 -8 58 -18 68
-22 17 -7 18 -6 6 14 -10 14 -24 21 -46 21 -17 0 -35 4 -38 10 -3 5 -15 15
-27 21 -15 8 -19 8 -14 0z"/>
<path d="M46690 3110 c0 -5 5 -10 11 -10 5 0 7 5 4 10 -3 6 -8 10 -11 10 -2 0
-4 -4 -4 -10z"/>
<path d="M51796 3101 c-3 -5 5 -11 19 -13 30 -6 32 -2 6 12 -11 6 -22 6 -25 1z"/>
<path d="M46734 3091 c3 -5 15 -11 26 -14 17 -4 19 -3 9 9 -12 15 -44 20 -35
5z"/>
<path d="M52084 2948 c3 -13 6 -26 6 -30 0 -8 53 -38 67 -38 4 0 2 5 -5 12 -7
7 -12 20 -12 29 0 10 -9 21 -20 24 -11 3 -20 11 -20 16 0 5 -5 9 -11 9 -7 0
-9 -9 -5 -22z"/>
<path d="M49940 2941 c0 -14 49 -45 57 -37 12 11 -12 41 -36 44 -11 2 -21 -1
-21 -7z"/>
<path d="M50064 2879 c-8 -13 -11 -11 74 -42 88 -32 98 -33 105 -7 4 16 -2 22
-36 32 -32 10 -41 10 -45 0 -3 -10 -7 -10 -16 1 -14 18 -73 30 -82 16z"/>
<path d="M52480 2820 c0 -5 6 -10 13 -10 8 0 22 -9 32 -20 12 -14 31 -20 58
-20 26 0 44 -6 53 -17 11 -16 12 -16 10 -2 -3 26 -28 50 -44 44 -8 -3 -30 4
-49 15 -36 21 -73 26 -73 10z"/>
<path d="M52716 2685 c-15 -23 -15 -26 4 -45 24 -24 52 -27 44 -5 -4 8 -1 15
6 15 6 0 14 -9 17 -20 5 -21 56 -48 90 -50 20 0 53 -5 158 -19 88 -13 95 -13
95 -2 0 5 -30 12 -67 16 -46 5 -76 14 -97 30 -22 16 -39 22 -58 18 -21 -4 -28
-1 -28 10 0 8 -8 21 -17 28 -15 11 -16 11 -5 -1 6 -8 12 -21 12 -29 0 -11 -4
-11 -20 4 -10 9 -26 15 -35 11 -11 -4 -22 5 -36 29 -25 41 -41 44 -63 10z
m129 -83 c-6 -7 -35 18 -35 31 0 5 9 2 20 -8 11 -10 18 -20 15 -23z"/>
<path d="M53010 2600 c20 -13 33 -13 25 0 -3 6 -14 10 -23 10 -15 0 -15 -2 -2
-10z"/>
<path d="M53506 2375 c-21 -22 -20 -32 4 -38 12 -3 20 -14 20 -26 0 -13 7 -21
18 -21 9 0 26 -7 36 -15 11 -8 26 -15 35 -15 8 0 23 -8 33 -17 15 -14 21 -15
27 -4 6 9 11 10 15 2 4 -6 19 -11 34 -10 25 0 26 1 8 12 -10 7 -30 25 -45 40
-14 15 -41 35 -61 45 -19 9 -39 22 -43 29 -4 7 -16 13 -25 13 -10 0 -23 5 -29
11 -7 7 -15 5 -27 -6z m134 -75 c8 -14 8 -20 0 -20 -15 0 -41 26 -33 34 11 11
22 6 33 -14z"/>
<path d="M53751 2271 c-8 -5 -9 -11 -3 -15 5 -3 15 1 22 9 14 16 3 20 -19 6z"/>
<path d="M53843 2190 l-11 -30 29 17 c16 10 25 19 19 21 -5 2 -8 8 -4 13 3 5
-1 9 -8 9 -8 0 -19 -14 -25 -30z"/>
<path d="M53895 2169 c-29 -28 -29 -29 -7 -29 13 0 22 -6 22 -15 0 -9 9 -15
21 -15 15 0 19 5 15 15 -3 8 2 19 11 24 14 7 14 10 -6 20 -12 7 -19 16 -16 22
12 19 -11 7 -40 -22z"/>
<path d="M54260 2113 c-1 -89 -77 -468 -110 -545 -5 -13 -39 -106 -76 -208
-36 -101 -76 -207 -89 -235 -56 -124 -73 -157 -131 -261 -63 -113 -115 -193
-166 -252 -29 -34 -30 -62 -2 -39 73 58 180 213 258 372 18 35 40 65 50 65 31
0 175 160 215 239 21 41 37 121 24 121 -4 0 -28 -25 -52 -55 -47 -59 -81 -72
-81 -32 0 13 12 61 26 108 50 167 78 266 105 369 12 47 24 92 27 100 2 8 6 26
8 39 2 13 7 27 11 30 9 7 11 107 2 116 -8 8 1 54 12 61 11 6 -8 44 -21 44 -6
0 -10 -17 -10 -37z m-150 -873 c0 -5 -4 -10 -10 -10 -5 0 -10 5 -10 10 0 6 5
10 10 10 6 0 10 -4 10 -10z"/>
<path d="M54150 2110 c0 -6 7 -13 15 -16 23 -9 18 -26 -5 -19 -36 11 -18 -16
27 -42 20 -11 22 -10 21 18 -1 21 -10 36 -30 50 -15 11 -28 15 -28 9z"/>
<path d="M54315 1980 c-10 -16 6 -63 18 -51 7 7 15 0 27 -21 9 -18 23 -34 31
-37 11 -3 12 -1 2 11 -10 11 -10 17 -1 26 9 9 9 12 0 12 -7 0 -12 6 -10 13 7
36 -49 76 -67 47z"/>
<path d="M50640 1707 c8 -8 31 -24 50 -35 32 -17 35 -23 35 -65 0 -59 36 -107
103 -139 26 -12 51 -24 56 -26 5 -3 7 13 3 36 l-5 41 61 -49 c69 -56 155 -104
221 -124 42 -13 48 -12 71 6 20 16 25 28 25 67 0 55 10 49 -207 135 -76 30
-169 69 -208 86 -44 20 -78 29 -93 25 -14 -3 -33 1 -50 13 -15 11 -38 25 -52
32 -22 11 -23 11 -10 -3z"/>
<path d="M53403 1589 c-6 -6 -8 -19 -6 -29 4 -15 8 -17 23 -8 10 7 16 18 12
26 -3 10 -1 13 7 8 6 -4 9 -16 6 -27 -4 -13 -1 -21 12 -26 10 -4 23 -13 29
-22 6 -8 18 -11 27 -8 10 4 22 -2 32 -15 15 -22 15 -22 30 -3 18 25 21 55 3
37 -16 -16 -28 -15 -28 3 0 19 -36 39 -46 24 -4 -7 -17 1 -35 20 -29 33 -48
38 -66 20z"/>
<path d="M53282 1577 c-6 -7 -17 -34 -24 -60 -6 -26 -16 -47 -20 -47 -4 0 -8
-11 -8 -25 0 -25 10 -32 24 -18 11 11 105 13 112 2 3 -5 12 -9 21 -9 11 0 14
6 10 23 -6 21 -5 21 8 4 7 -11 11 -26 8 -34 -5 -13 0 -15 25 -11 27 4 31 1 34
-19 2 -13 8 -23 13 -23 6 1 9 9 7 19 -2 10 4 21 12 24 10 4 13 1 9 -9 -3 -8 1
-14 9 -14 8 0 23 -9 33 -20 19 -21 65 -28 65 -10 0 17 25 11 48 -10 12 -11 28
-20 37 -20 8 0 15 -7 15 -15 0 -21 27 -30 45 -15 8 6 19 9 26 5 6 -4 14 -2 18
4 4 6 15 9 24 5 13 -5 16 -15 12 -43 -6 -44 10 -69 52 -77 35 -7 39 -2 86 91
38 76 52 131 36 140 -5 4 -26 -4 -46 -16 -25 -16 -38 -19 -41 -11 -4 14 -32
16 -32 3 0 -5 -9 -13 -21 -16 -16 -5 -19 -12 -15 -31 8 -29 -5 -31 -22 -3 -10
16 -19 19 -41 14 -23 -5 -29 -2 -34 15 -4 15 -10 18 -24 13 -10 -3 -21 -12
-26 -19 -6 -10 -16 -7 -45 12 -27 19 -45 24 -68 21 -30 -5 -54 7 -54 26 0 5 7
6 16 3 11 -4 14 -1 12 12 -2 9 -10 17 -18 17 -22 1 -41 15 -35 26 3 5 -1 6 -9
3 -9 -3 -15 -9 -14 -12 2 -19 -4 -23 -17 -12 -15 13 -30 7 -30 -11 0 -5 -4 -9
-10 -8 -5 0 -9 11 -8 25 1 17 -3 24 -17 24 -10 0 -22 5 -25 10 -3 6 -17 10
-31 10 -24 0 -34 23 -14 35 6 3 10 10 10 16 0 5 -9 4 -20 -3 -15 -10 -22 -10
-32 0 -9 9 -9 12 1 12 7 0 9 5 6 10 -8 14 -20 13 -33 -3z m83 -98 c12 -18 -3
-22 -20 -5 -14 14 -14 16 -1 16 8 0 18 -5 21 -11z m255 -110 c0 -5 -7 -9 -15
-9 -15 0 -20 12 -9 23 8 8 24 -1 24 -14z"/>
<path d="M53950 615 c0 -8 5 -15 10 -15 6 0 10 7 10 15 0 8 -4 15 -10 15 -5 0
-10 -7 -10 -15z"/>
</g>
</svg>
